M48
; DRILL file KiCad 10.0.5-10.0.5~ubuntu24.04.1 date 2026-08-20T15:12:33
; FORMAT={-:-/ absolute / metric / decimal}
; #@! TF.CreationDate,2026-08-20T15:12:33-05:00
; #@! TF.GenerationSoftware,Kicad,Pcbnew,10.0.5-10.0.5~ubuntu24.04.1
; #@! TF.FileFunction,Plated,1,2,PTH
FMAT,2
METRIC
; #@! TA.AperFunction,Plated,PTH,ViaDrill
T1C0.300
; #@! TA.AperFunction,Plated,PTH,ComponentDrill
T2C1.000
; #@! TA.AperFunction,Plated,PTH,ComponentDrill
T3C1.200
; #@! TA.AperFunction,Plated,PTH,ComponentDrill
T4C1.500
; #@! TA.AperFunction,Plated,PTH,ComponentDrill
T5C2.000
%
G90
G05
T1
X101.4Y-56.1
X101.4Y-72.05
X102.5Y-58.65
X102.5Y-116.8
X103.8Y-63.8
X103.8Y-105.35
X105.31Y-104.11
X118.99Y-145.45
X118.99Y-145.45
X119.1Y-119.35
X121.55Y-83.8
X122.8Y-66.85
X122.95Y-101.6
X124.1Y-125.71
X126.62Y-140.92
X129.2Y-132.075
X130.75Y-55.1
X130.75Y-88.85
X132.0Y-111.75
X133.35Y-63.25
X133.35Y-106.65
X134.4Y-86.3
X137.6Y-54.6
X142.45Y-69.45
X142.45Y-86.3
X143.8Y-67.75
X143.8Y-88.85
X144.975Y-114.275
X144.975Y-129.525
X144.975Y-141.025
X145.3Y-72.05
X146.4Y-61.7
X146.45Y-116.85
X146.9Y-124.45
X146.925Y-143.175
X148.625Y-66.35
X148.65Y-106.65
X151.28Y-145.39
X151.31Y-111.75
X151.34Y-132.1
X151.65Y-64.95
X151.65Y-109.2
X155.037Y-111.725
T2
X107.625Y-53.6
X107.625Y-56.14
X107.625Y-58.68
X107.625Y-61.22
X107.625Y-63.76
X107.625Y-66.3
X108.41Y-92.895
X108.41Y-95.435
X110.165Y-53.6
X110.165Y-56.14
X110.165Y-58.68
X110.165Y-61.22
X110.165Y-63.76
X110.165Y-66.3
X115.825Y-43.775
X115.825Y-46.315
X115.825Y-48.855
X115.825Y-51.395
X115.825Y-53.935
X115.825Y-56.475
X115.825Y-59.015
X115.825Y-61.555
X115.825Y-64.095
X116.46Y-70.445
X119.0Y-70.445
X119.0Y-135.16
X121.54Y-70.445
X121.54Y-135.16
X124.08Y-70.445
X124.08Y-135.16
X126.62Y-70.445
X126.62Y-135.16
X129.16Y-70.445
X134.787Y-44.797
X134.787Y-47.337
X134.787Y-49.877
X134.787Y-52.337
X134.787Y-54.957
X134.787Y-57.497
X137.205Y-83.795
X137.205Y-86.335
X137.205Y-88.875
X137.205Y-91.415
X137.205Y-93.955
X137.205Y-96.495
X137.205Y-99.035
X137.205Y-101.575
X137.205Y-104.115
X137.205Y-106.655
X137.205Y-109.195
X137.205Y-111.735
X137.205Y-114.275
X137.205Y-116.815
X137.205Y-119.355
X137.205Y-121.895
X137.205Y-124.435
X137.205Y-126.975
X137.205Y-129.515
X137.205Y-132.055
X139.745Y-83.795
X139.745Y-86.335
X139.745Y-88.875
X139.745Y-91.415
X139.745Y-93.955
X139.745Y-96.495
X139.745Y-99.035
X139.745Y-101.575
X139.745Y-104.115
X139.745Y-106.655
X139.745Y-109.195
X139.745Y-111.735
X139.745Y-114.275
X139.745Y-116.815
X139.745Y-119.355
X139.745Y-121.895
X139.745Y-124.435
X139.745Y-126.975
X139.745Y-129.515
X139.745Y-132.055
X139.748Y-42.337
X142.287Y-42.337
X144.827Y-42.337
X155.037Y-55.087
X155.037Y-57.587
T3
X102.1Y-121.741
X102.1Y-125.991
X162.8Y-54.3
X162.8Y-58.55
X162.8Y-66.3
X162.8Y-70.55
T4
X104.6Y-120.491
X104.6Y-127.491
X160.3Y-52.8
X160.3Y-59.8
X160.3Y-64.8
X160.3Y-71.8
T5
X115.32Y-92.88
X125.8Y-96.5
X125.825Y-78.8
M30
