%TF.GenerationSoftware,KiCad,Pcbnew,10.0.5-10.0.5~ubuntu24.04.1*%
%TF.CreationDate,2026-08-20T15:12:30-05:00*%
%TF.ProjectId,pipod-carrier-v2,7069706f-642d-4636-9172-726965722d76,.01*%
%TF.SameCoordinates,Original*%
%TF.FileFunction,Soldermask,Bot*%
%TF.FilePolarity,Negative*%
%FSLAX46Y46*%
G04 Gerber Fmt 4.6, Leading zero omitted, Abs format (unit mm)*
G04 Created by KiCad (PCBNEW 10.0.5-10.0.5~ubuntu24.04.1) date 2026-08-20 15:12:30*
%MOMM*%
%LPD*%
G01*
G04 APERTURE LIST*
%ADD10O,1.700000X1.700000*%
%ADD11R,1.700000X1.700000*%
%ADD12C,6.000000*%
%ADD13O,8.000000X6.000000*%
%ADD14C,3.000000*%
%ADD15C,2.750000*%
%ADD16C,2.400000*%
%ADD17C,1.700000*%
%ADD18C,2.200000*%
G04 APERTURE END LIST*
D10*
%TO.C,J1*%
X137205000Y-83795000D03*
X139745000Y-83795000D03*
X137205000Y-86335000D03*
X139745000Y-86335000D03*
X137205000Y-88875000D03*
X139745000Y-88875000D03*
X137205000Y-91415000D03*
X139745000Y-91415000D03*
X137205000Y-93955000D03*
X139745000Y-93955000D03*
X137205000Y-96495000D03*
X139745000Y-96495000D03*
X137205000Y-99035000D03*
X139745000Y-99035000D03*
X137205000Y-101575000D03*
X139745000Y-101575000D03*
X137205000Y-104115000D03*
X139745000Y-104115000D03*
X137205000Y-106655000D03*
X139745000Y-106655000D03*
X137205000Y-109195000D03*
X139745000Y-109195000D03*
X137205000Y-111735000D03*
X139745000Y-111735000D03*
X137205000Y-114275000D03*
X139745000Y-114275000D03*
X137205000Y-116815000D03*
X139745000Y-116815000D03*
X137205000Y-119355000D03*
X139745000Y-119355000D03*
X137205000Y-121895000D03*
X139745000Y-121895000D03*
X137205000Y-124435000D03*
X139745000Y-124435000D03*
X137205000Y-126975000D03*
X139745000Y-126975000D03*
X137205000Y-129515000D03*
X139745000Y-129515000D03*
X137205000Y-132055000D03*
D11*
X139745000Y-132055000D03*
D12*
X161475000Y-136925000D03*
X161475000Y-78925000D03*
X138475000Y-136925000D03*
X138475000Y-78925000D03*
%TD*%
D13*
%TO.C,Battery Slot*%
X111900000Y-78075000D03*
%TD*%
D14*
%TO.C,TP4*%
X115320000Y-92880000D03*
%TD*%
D15*
%TO.C,SW3*%
X104600000Y-120491401D03*
X104600000Y-127491401D03*
D16*
X102100000Y-121741401D03*
X102100000Y-125991401D03*
%TD*%
D15*
%TO.C,SW2*%
X160300000Y-71800000D03*
X160300000Y-64800000D03*
D16*
X162800000Y-70550000D03*
X162800000Y-66300000D03*
%TD*%
D11*
%TO.C,U1*%
X119000000Y-135160000D03*
D17*
X121540000Y-135160000D03*
X124080000Y-135160000D03*
X126620000Y-135160000D03*
%TD*%
D18*
%TO.C,REF\u002A\u002A*%
X160500000Y-145700000D03*
%TD*%
%TO.C,REF\u002A\u002A*%
X104500000Y-145700000D03*
%TD*%
D14*
%TO.C,TP5*%
X125800000Y-96500000D03*
%TD*%
%TO.C,TP3*%
X125825000Y-78800000D03*
%TD*%
D18*
%TO.C,REF\u002A\u002A*%
X104500000Y-44700000D03*
%TD*%
D15*
%TO.C,SW1*%
X160300000Y-59800000D03*
X160300000Y-52800000D03*
D16*
X162800000Y-58550000D03*
X162800000Y-54300000D03*
%TD*%
D18*
%TO.C,REF\u002A\u002A*%
X160500000Y-44700000D03*
%TD*%
D17*
%TO.C,U4*%
X134787500Y-57497500D03*
X134787500Y-54957500D03*
X134787500Y-52337500D03*
X134787500Y-49877500D03*
X134787500Y-47337500D03*
X134787500Y-44797500D03*
X139747500Y-42337500D03*
X142287500Y-42337500D03*
X144827500Y-42337500D03*
X155037500Y-55087500D03*
X155037500Y-57587500D03*
%TD*%
%TO.C,U3*%
X129160000Y-70445000D03*
X126620000Y-70445000D03*
X124080000Y-70445000D03*
X121540000Y-70445000D03*
X119000000Y-70445000D03*
X116460000Y-70445000D03*
X115825000Y-64095000D03*
X115825000Y-61555000D03*
X115825000Y-59015000D03*
X115825000Y-56475000D03*
X115825000Y-53935000D03*
X115825000Y-51395000D03*
X115825000Y-48855000D03*
X115825000Y-46315000D03*
X115825000Y-43775000D03*
%TD*%
D11*
%TO.C,J3*%
X107625000Y-53600000D03*
D17*
X110165000Y-53600000D03*
X107625000Y-56140000D03*
X110165000Y-56140000D03*
X107625000Y-58680000D03*
X110165000Y-58680000D03*
X107625000Y-61220000D03*
X110165000Y-61220000D03*
X107625000Y-63760000D03*
X110165000Y-63760000D03*
X107625000Y-66300000D03*
X110165000Y-66300000D03*
%TD*%
D11*
%TO.C,J5*%
X108410000Y-95435000D03*
D17*
X108410000Y-92895000D03*
%TD*%
M02*
