%TF.GenerationSoftware,KiCad,Pcbnew,10.0.5-10.0.5~ubuntu24.04.1*%
%TF.CreationDate,2026-08-20T15:12:29-05:00*%
%TF.ProjectId,pipod-carrier-v2,7069706f-642d-4636-9172-726965722d76,.01*%
%TF.SameCoordinates,Original*%
%TF.FileFunction,Legend,Top*%
%TF.FilePolarity,Positive*%
%FSLAX46Y46*%
G04 Gerber Fmt 4.6, Leading zero omitted, Abs format (unit mm)*
G04 Created by KiCad (PCBNEW 10.0.5-10.0.5~ubuntu24.04.1) date 2026-08-20 15:12:29*
%MOMM*%
%LPD*%
G01*
G04 APERTURE LIST*
%ADD10C,0.100000*%
%ADD11C,0.150000*%
%ADD12C,0.120000*%
G04 APERTURE END LIST*
D10*
X162700000Y-145700000D02*
G75*
G02*
X158300000Y-145700000I-2200000J0D01*
G01*
X158300000Y-145700000D02*
G75*
G02*
X162700000Y-145700000I2200000J0D01*
G01*
X106700000Y-145700000D02*
G75*
G02*
X102300000Y-145700000I-2200000J0D01*
G01*
X102300000Y-145700000D02*
G75*
G02*
X106700000Y-145700000I2200000J0D01*
G01*
X106675000Y-44700000D02*
G75*
G02*
X102275000Y-44700000I-2200000J0D01*
G01*
X102275000Y-44700000D02*
G75*
G02*
X106675000Y-44700000I2200000J0D01*
G01*
X162725000Y-44675000D02*
G75*
G02*
X158325000Y-44675000I-2200000J0D01*
G01*
X158325000Y-44675000D02*
G75*
G02*
X162725000Y-44675000I2200000J0D01*
G01*
X106593884Y-69542419D02*
X106593884Y-68542419D01*
X106593884Y-68542419D02*
X106831979Y-68542419D01*
X106831979Y-68542419D02*
X106974836Y-68590038D01*
X106974836Y-68590038D02*
X107070074Y-68685276D01*
X107070074Y-68685276D02*
X107117693Y-68780514D01*
X107117693Y-68780514D02*
X107165312Y-68970990D01*
X107165312Y-68970990D02*
X107165312Y-69113847D01*
X107165312Y-69113847D02*
X107117693Y-69304323D01*
X107117693Y-69304323D02*
X107070074Y-69399561D01*
X107070074Y-69399561D02*
X106974836Y-69494800D01*
X106974836Y-69494800D02*
X106831979Y-69542419D01*
X106831979Y-69542419D02*
X106593884Y-69542419D01*
X107593884Y-69542419D02*
X107593884Y-68875752D01*
X107593884Y-68542419D02*
X107546265Y-68590038D01*
X107546265Y-68590038D02*
X107593884Y-68637657D01*
X107593884Y-68637657D02*
X107641503Y-68590038D01*
X107641503Y-68590038D02*
X107593884Y-68542419D01*
X107593884Y-68542419D02*
X107593884Y-68637657D01*
X108022455Y-69494800D02*
X108117693Y-69542419D01*
X108117693Y-69542419D02*
X108308169Y-69542419D01*
X108308169Y-69542419D02*
X108403407Y-69494800D01*
X108403407Y-69494800D02*
X108451026Y-69399561D01*
X108451026Y-69399561D02*
X108451026Y-69351942D01*
X108451026Y-69351942D02*
X108403407Y-69256704D01*
X108403407Y-69256704D02*
X108308169Y-69209085D01*
X108308169Y-69209085D02*
X108165312Y-69209085D01*
X108165312Y-69209085D02*
X108070074Y-69161466D01*
X108070074Y-69161466D02*
X108022455Y-69066228D01*
X108022455Y-69066228D02*
X108022455Y-69018609D01*
X108022455Y-69018609D02*
X108070074Y-68923371D01*
X108070074Y-68923371D02*
X108165312Y-68875752D01*
X108165312Y-68875752D02*
X108308169Y-68875752D01*
X108308169Y-68875752D02*
X108403407Y-68923371D01*
X108879598Y-68875752D02*
X108879598Y-69875752D01*
X108879598Y-68923371D02*
X108974836Y-68875752D01*
X108974836Y-68875752D02*
X109165312Y-68875752D01*
X109165312Y-68875752D02*
X109260550Y-68923371D01*
X109260550Y-68923371D02*
X109308169Y-68970990D01*
X109308169Y-68970990D02*
X109355788Y-69066228D01*
X109355788Y-69066228D02*
X109355788Y-69351942D01*
X109355788Y-69351942D02*
X109308169Y-69447180D01*
X109308169Y-69447180D02*
X109260550Y-69494800D01*
X109260550Y-69494800D02*
X109165312Y-69542419D01*
X109165312Y-69542419D02*
X108974836Y-69542419D01*
X108974836Y-69542419D02*
X108879598Y-69494800D01*
X109927217Y-69542419D02*
X109831979Y-69494800D01*
X109831979Y-69494800D02*
X109784360Y-69399561D01*
X109784360Y-69399561D02*
X109784360Y-68542419D01*
X110736741Y-69542419D02*
X110736741Y-69018609D01*
X110736741Y-69018609D02*
X110689122Y-68923371D01*
X110689122Y-68923371D02*
X110593884Y-68875752D01*
X110593884Y-68875752D02*
X110403408Y-68875752D01*
X110403408Y-68875752D02*
X110308170Y-68923371D01*
X110736741Y-69494800D02*
X110641503Y-69542419D01*
X110641503Y-69542419D02*
X110403408Y-69542419D01*
X110403408Y-69542419D02*
X110308170Y-69494800D01*
X110308170Y-69494800D02*
X110260551Y-69399561D01*
X110260551Y-69399561D02*
X110260551Y-69304323D01*
X110260551Y-69304323D02*
X110308170Y-69209085D01*
X110308170Y-69209085D02*
X110403408Y-69161466D01*
X110403408Y-69161466D02*
X110641503Y-69161466D01*
X110641503Y-69161466D02*
X110736741Y-69113847D01*
X111117694Y-68875752D02*
X111355789Y-69542419D01*
X111593884Y-68875752D02*
X111355789Y-69542419D01*
X111355789Y-69542419D02*
X111260551Y-69780514D01*
X111260551Y-69780514D02*
X111212932Y-69828133D01*
X111212932Y-69828133D02*
X111117694Y-69875752D01*
X104578884Y-98822419D02*
X104578884Y-97822419D01*
X104578884Y-97822419D02*
X104816979Y-97822419D01*
X104816979Y-97822419D02*
X104959836Y-97870038D01*
X104959836Y-97870038D02*
X105055074Y-97965276D01*
X105055074Y-97965276D02*
X105102693Y-98060514D01*
X105102693Y-98060514D02*
X105150312Y-98250990D01*
X105150312Y-98250990D02*
X105150312Y-98393847D01*
X105150312Y-98393847D02*
X105102693Y-98584323D01*
X105102693Y-98584323D02*
X105055074Y-98679561D01*
X105055074Y-98679561D02*
X104959836Y-98774800D01*
X104959836Y-98774800D02*
X104816979Y-98822419D01*
X104816979Y-98822419D02*
X104578884Y-98822419D01*
X105578884Y-98822419D02*
X105578884Y-98155752D01*
X105578884Y-97822419D02*
X105531265Y-97870038D01*
X105531265Y-97870038D02*
X105578884Y-97917657D01*
X105578884Y-97917657D02*
X105626503Y-97870038D01*
X105626503Y-97870038D02*
X105578884Y-97822419D01*
X105578884Y-97822419D02*
X105578884Y-97917657D01*
X106007455Y-98774800D02*
X106102693Y-98822419D01*
X106102693Y-98822419D02*
X106293169Y-98822419D01*
X106293169Y-98822419D02*
X106388407Y-98774800D01*
X106388407Y-98774800D02*
X106436026Y-98679561D01*
X106436026Y-98679561D02*
X106436026Y-98631942D01*
X106436026Y-98631942D02*
X106388407Y-98536704D01*
X106388407Y-98536704D02*
X106293169Y-98489085D01*
X106293169Y-98489085D02*
X106150312Y-98489085D01*
X106150312Y-98489085D02*
X106055074Y-98441466D01*
X106055074Y-98441466D02*
X106007455Y-98346228D01*
X106007455Y-98346228D02*
X106007455Y-98298609D01*
X106007455Y-98298609D02*
X106055074Y-98203371D01*
X106055074Y-98203371D02*
X106150312Y-98155752D01*
X106150312Y-98155752D02*
X106293169Y-98155752D01*
X106293169Y-98155752D02*
X106388407Y-98203371D01*
X106864598Y-98155752D02*
X106864598Y-99155752D01*
X106864598Y-98203371D02*
X106959836Y-98155752D01*
X106959836Y-98155752D02*
X107150312Y-98155752D01*
X107150312Y-98155752D02*
X107245550Y-98203371D01*
X107245550Y-98203371D02*
X107293169Y-98250990D01*
X107293169Y-98250990D02*
X107340788Y-98346228D01*
X107340788Y-98346228D02*
X107340788Y-98631942D01*
X107340788Y-98631942D02*
X107293169Y-98727180D01*
X107293169Y-98727180D02*
X107245550Y-98774800D01*
X107245550Y-98774800D02*
X107150312Y-98822419D01*
X107150312Y-98822419D02*
X106959836Y-98822419D01*
X106959836Y-98822419D02*
X106864598Y-98774800D01*
X107912217Y-98822419D02*
X107816979Y-98774800D01*
X107816979Y-98774800D02*
X107769360Y-98679561D01*
X107769360Y-98679561D02*
X107769360Y-97822419D01*
X108721741Y-98822419D02*
X108721741Y-98298609D01*
X108721741Y-98298609D02*
X108674122Y-98203371D01*
X108674122Y-98203371D02*
X108578884Y-98155752D01*
X108578884Y-98155752D02*
X108388408Y-98155752D01*
X108388408Y-98155752D02*
X108293170Y-98203371D01*
X108721741Y-98774800D02*
X108626503Y-98822419D01*
X108626503Y-98822419D02*
X108388408Y-98822419D01*
X108388408Y-98822419D02*
X108293170Y-98774800D01*
X108293170Y-98774800D02*
X108245551Y-98679561D01*
X108245551Y-98679561D02*
X108245551Y-98584323D01*
X108245551Y-98584323D02*
X108293170Y-98489085D01*
X108293170Y-98489085D02*
X108388408Y-98441466D01*
X108388408Y-98441466D02*
X108626503Y-98441466D01*
X108626503Y-98441466D02*
X108721741Y-98393847D01*
X109102694Y-98155752D02*
X109340789Y-98822419D01*
X109578884Y-98155752D02*
X109340789Y-98822419D01*
X109340789Y-98822419D02*
X109245551Y-99060514D01*
X109245551Y-99060514D02*
X109197932Y-99108133D01*
X109197932Y-99108133D02*
X109102694Y-99155752D01*
X110626504Y-97822419D02*
X111245551Y-97822419D01*
X111245551Y-97822419D02*
X110912218Y-98203371D01*
X110912218Y-98203371D02*
X111055075Y-98203371D01*
X111055075Y-98203371D02*
X111150313Y-98250990D01*
X111150313Y-98250990D02*
X111197932Y-98298609D01*
X111197932Y-98298609D02*
X111245551Y-98393847D01*
X111245551Y-98393847D02*
X111245551Y-98631942D01*
X111245551Y-98631942D02*
X111197932Y-98727180D01*
X111197932Y-98727180D02*
X111150313Y-98774800D01*
X111150313Y-98774800D02*
X111055075Y-98822419D01*
X111055075Y-98822419D02*
X110769361Y-98822419D01*
X110769361Y-98822419D02*
X110674123Y-98774800D01*
X110674123Y-98774800D02*
X110626504Y-98727180D01*
X111531266Y-97822419D02*
X111864599Y-98822419D01*
X111864599Y-98822419D02*
X112197932Y-97822419D01*
X112436028Y-97822419D02*
X113055075Y-97822419D01*
X113055075Y-97822419D02*
X112721742Y-98203371D01*
X112721742Y-98203371D02*
X112864599Y-98203371D01*
X112864599Y-98203371D02*
X112959837Y-98250990D01*
X112959837Y-98250990D02*
X113007456Y-98298609D01*
X113007456Y-98298609D02*
X113055075Y-98393847D01*
X113055075Y-98393847D02*
X113055075Y-98631942D01*
X113055075Y-98631942D02*
X113007456Y-98727180D01*
X113007456Y-98727180D02*
X112959837Y-98774800D01*
X112959837Y-98774800D02*
X112864599Y-98822419D01*
X112864599Y-98822419D02*
X112578885Y-98822419D01*
X112578885Y-98822419D02*
X112483647Y-98774800D01*
X112483647Y-98774800D02*
X112436028Y-98727180D01*
X118615312Y-138942419D02*
X118281979Y-138466228D01*
X118043884Y-138942419D02*
X118043884Y-137942419D01*
X118043884Y-137942419D02*
X118424836Y-137942419D01*
X118424836Y-137942419D02*
X118520074Y-137990038D01*
X118520074Y-137990038D02*
X118567693Y-138037657D01*
X118567693Y-138037657D02*
X118615312Y-138132895D01*
X118615312Y-138132895D02*
X118615312Y-138275752D01*
X118615312Y-138275752D02*
X118567693Y-138370990D01*
X118567693Y-138370990D02*
X118520074Y-138418609D01*
X118520074Y-138418609D02*
X118424836Y-138466228D01*
X118424836Y-138466228D02*
X118043884Y-138466228D01*
X119186741Y-138942419D02*
X119091503Y-138894800D01*
X119091503Y-138894800D02*
X119043884Y-138847180D01*
X119043884Y-138847180D02*
X118996265Y-138751942D01*
X118996265Y-138751942D02*
X118996265Y-138466228D01*
X118996265Y-138466228D02*
X119043884Y-138370990D01*
X119043884Y-138370990D02*
X119091503Y-138323371D01*
X119091503Y-138323371D02*
X119186741Y-138275752D01*
X119186741Y-138275752D02*
X119329598Y-138275752D01*
X119329598Y-138275752D02*
X119424836Y-138323371D01*
X119424836Y-138323371D02*
X119472455Y-138370990D01*
X119472455Y-138370990D02*
X119520074Y-138466228D01*
X119520074Y-138466228D02*
X119520074Y-138751942D01*
X119520074Y-138751942D02*
X119472455Y-138847180D01*
X119472455Y-138847180D02*
X119424836Y-138894800D01*
X119424836Y-138894800D02*
X119329598Y-138942419D01*
X119329598Y-138942419D02*
X119186741Y-138942419D01*
X119805789Y-138275752D02*
X120186741Y-138275752D01*
X119948646Y-137942419D02*
X119948646Y-138799561D01*
X119948646Y-138799561D02*
X119996265Y-138894800D01*
X119996265Y-138894800D02*
X120091503Y-138942419D01*
X120091503Y-138942419D02*
X120186741Y-138942419D01*
X120948646Y-138942419D02*
X120948646Y-138418609D01*
X120948646Y-138418609D02*
X120901027Y-138323371D01*
X120901027Y-138323371D02*
X120805789Y-138275752D01*
X120805789Y-138275752D02*
X120615313Y-138275752D01*
X120615313Y-138275752D02*
X120520075Y-138323371D01*
X120948646Y-138894800D02*
X120853408Y-138942419D01*
X120853408Y-138942419D02*
X120615313Y-138942419D01*
X120615313Y-138942419D02*
X120520075Y-138894800D01*
X120520075Y-138894800D02*
X120472456Y-138799561D01*
X120472456Y-138799561D02*
X120472456Y-138704323D01*
X120472456Y-138704323D02*
X120520075Y-138609085D01*
X120520075Y-138609085D02*
X120615313Y-138561466D01*
X120615313Y-138561466D02*
X120853408Y-138561466D01*
X120853408Y-138561466D02*
X120948646Y-138513847D01*
X121424837Y-138942419D02*
X121424837Y-138275752D01*
X121424837Y-138466228D02*
X121472456Y-138370990D01*
X121472456Y-138370990D02*
X121520075Y-138323371D01*
X121520075Y-138323371D02*
X121615313Y-138275752D01*
X121615313Y-138275752D02*
X121710551Y-138275752D01*
X121948647Y-138275752D02*
X122186742Y-138942419D01*
X122424837Y-138275752D02*
X122186742Y-138942419D01*
X122186742Y-138942419D02*
X122091504Y-139180514D01*
X122091504Y-139180514D02*
X122043885Y-139228133D01*
X122043885Y-139228133D02*
X121948647Y-139275752D01*
X123567695Y-138418609D02*
X123901028Y-138418609D01*
X124043885Y-138942419D02*
X123567695Y-138942419D01*
X123567695Y-138942419D02*
X123567695Y-137942419D01*
X123567695Y-137942419D02*
X124043885Y-137942419D01*
X124472457Y-138275752D02*
X124472457Y-138942419D01*
X124472457Y-138370990D02*
X124520076Y-138323371D01*
X124520076Y-138323371D02*
X124615314Y-138275752D01*
X124615314Y-138275752D02*
X124758171Y-138275752D01*
X124758171Y-138275752D02*
X124853409Y-138323371D01*
X124853409Y-138323371D02*
X124901028Y-138418609D01*
X124901028Y-138418609D02*
X124901028Y-138942419D01*
X125805790Y-138894800D02*
X125710552Y-138942419D01*
X125710552Y-138942419D02*
X125520076Y-138942419D01*
X125520076Y-138942419D02*
X125424838Y-138894800D01*
X125424838Y-138894800D02*
X125377219Y-138847180D01*
X125377219Y-138847180D02*
X125329600Y-138751942D01*
X125329600Y-138751942D02*
X125329600Y-138466228D01*
X125329600Y-138466228D02*
X125377219Y-138370990D01*
X125377219Y-138370990D02*
X125424838Y-138323371D01*
X125424838Y-138323371D02*
X125520076Y-138275752D01*
X125520076Y-138275752D02*
X125710552Y-138275752D01*
X125710552Y-138275752D02*
X125805790Y-138323371D01*
X126377219Y-138942419D02*
X126281981Y-138894800D01*
X126281981Y-138894800D02*
X126234362Y-138847180D01*
X126234362Y-138847180D02*
X126186743Y-138751942D01*
X126186743Y-138751942D02*
X126186743Y-138466228D01*
X126186743Y-138466228D02*
X126234362Y-138370990D01*
X126234362Y-138370990D02*
X126281981Y-138323371D01*
X126281981Y-138323371D02*
X126377219Y-138275752D01*
X126377219Y-138275752D02*
X126520076Y-138275752D01*
X126520076Y-138275752D02*
X126615314Y-138323371D01*
X126615314Y-138323371D02*
X126662933Y-138370990D01*
X126662933Y-138370990D02*
X126710552Y-138466228D01*
X126710552Y-138466228D02*
X126710552Y-138751942D01*
X126710552Y-138751942D02*
X126662933Y-138847180D01*
X126662933Y-138847180D02*
X126615314Y-138894800D01*
X126615314Y-138894800D02*
X126520076Y-138942419D01*
X126520076Y-138942419D02*
X126377219Y-138942419D01*
X127567695Y-138942419D02*
X127567695Y-137942419D01*
X127567695Y-138894800D02*
X127472457Y-138942419D01*
X127472457Y-138942419D02*
X127281981Y-138942419D01*
X127281981Y-138942419D02*
X127186743Y-138894800D01*
X127186743Y-138894800D02*
X127139124Y-138847180D01*
X127139124Y-138847180D02*
X127091505Y-138751942D01*
X127091505Y-138751942D02*
X127091505Y-138466228D01*
X127091505Y-138466228D02*
X127139124Y-138370990D01*
X127139124Y-138370990D02*
X127186743Y-138323371D01*
X127186743Y-138323371D02*
X127281981Y-138275752D01*
X127281981Y-138275752D02*
X127472457Y-138275752D01*
X127472457Y-138275752D02*
X127567695Y-138323371D01*
X128424838Y-138894800D02*
X128329600Y-138942419D01*
X128329600Y-138942419D02*
X128139124Y-138942419D01*
X128139124Y-138942419D02*
X128043886Y-138894800D01*
X128043886Y-138894800D02*
X127996267Y-138799561D01*
X127996267Y-138799561D02*
X127996267Y-138418609D01*
X127996267Y-138418609D02*
X128043886Y-138323371D01*
X128043886Y-138323371D02*
X128139124Y-138275752D01*
X128139124Y-138275752D02*
X128329600Y-138275752D01*
X128329600Y-138275752D02*
X128424838Y-138323371D01*
X128424838Y-138323371D02*
X128472457Y-138418609D01*
X128472457Y-138418609D02*
X128472457Y-138513847D01*
X128472457Y-138513847D02*
X127996267Y-138609085D01*
X128901029Y-138942419D02*
X128901029Y-138275752D01*
X128901029Y-138466228D02*
X128948648Y-138370990D01*
X128948648Y-138370990D02*
X128996267Y-138323371D01*
X128996267Y-138323371D02*
X129091505Y-138275752D01*
X129091505Y-138275752D02*
X129186743Y-138275752D01*
X104549523Y-53372419D02*
X104073333Y-53372419D01*
X104073333Y-53372419D02*
X104025714Y-53848609D01*
X104025714Y-53848609D02*
X104073333Y-53800990D01*
X104073333Y-53800990D02*
X104168571Y-53753371D01*
X104168571Y-53753371D02*
X104406666Y-53753371D01*
X104406666Y-53753371D02*
X104501904Y-53800990D01*
X104501904Y-53800990D02*
X104549523Y-53848609D01*
X104549523Y-53848609D02*
X104597142Y-53943847D01*
X104597142Y-53943847D02*
X104597142Y-54181942D01*
X104597142Y-54181942D02*
X104549523Y-54277180D01*
X104549523Y-54277180D02*
X104501904Y-54324800D01*
X104501904Y-54324800D02*
X104406666Y-54372419D01*
X104406666Y-54372419D02*
X104168571Y-54372419D01*
X104168571Y-54372419D02*
X104073333Y-54324800D01*
X104073333Y-54324800D02*
X104025714Y-54277180D01*
X104882857Y-53372419D02*
X105216190Y-54372419D01*
X105216190Y-54372419D02*
X105549523Y-53372419D01*
X107017580Y-122253884D02*
X108017580Y-122253884D01*
X108017580Y-122253884D02*
X108017580Y-122634836D01*
X108017580Y-122634836D02*
X107969961Y-122730074D01*
X107969961Y-122730074D02*
X107922342Y-122777693D01*
X107922342Y-122777693D02*
X107827104Y-122825312D01*
X107827104Y-122825312D02*
X107684247Y-122825312D01*
X107684247Y-122825312D02*
X107589009Y-122777693D01*
X107589009Y-122777693D02*
X107541390Y-122730074D01*
X107541390Y-122730074D02*
X107493771Y-122634836D01*
X107493771Y-122634836D02*
X107493771Y-122253884D01*
X107017580Y-123396741D02*
X107065200Y-123301503D01*
X107065200Y-123301503D02*
X107112819Y-123253884D01*
X107112819Y-123253884D02*
X107208057Y-123206265D01*
X107208057Y-123206265D02*
X107493771Y-123206265D01*
X107493771Y-123206265D02*
X107589009Y-123253884D01*
X107589009Y-123253884D02*
X107636628Y-123301503D01*
X107636628Y-123301503D02*
X107684247Y-123396741D01*
X107684247Y-123396741D02*
X107684247Y-123539598D01*
X107684247Y-123539598D02*
X107636628Y-123634836D01*
X107636628Y-123634836D02*
X107589009Y-123682455D01*
X107589009Y-123682455D02*
X107493771Y-123730074D01*
X107493771Y-123730074D02*
X107208057Y-123730074D01*
X107208057Y-123730074D02*
X107112819Y-123682455D01*
X107112819Y-123682455D02*
X107065200Y-123634836D01*
X107065200Y-123634836D02*
X107017580Y-123539598D01*
X107017580Y-123539598D02*
X107017580Y-123396741D01*
X107684247Y-124063408D02*
X107017580Y-124253884D01*
X107017580Y-124253884D02*
X107493771Y-124444360D01*
X107493771Y-124444360D02*
X107017580Y-124634836D01*
X107017580Y-124634836D02*
X107684247Y-124825312D01*
X107065200Y-125587217D02*
X107017580Y-125491979D01*
X107017580Y-125491979D02*
X107017580Y-125301503D01*
X107017580Y-125301503D02*
X107065200Y-125206265D01*
X107065200Y-125206265D02*
X107160438Y-125158646D01*
X107160438Y-125158646D02*
X107541390Y-125158646D01*
X107541390Y-125158646D02*
X107636628Y-125206265D01*
X107636628Y-125206265D02*
X107684247Y-125301503D01*
X107684247Y-125301503D02*
X107684247Y-125491979D01*
X107684247Y-125491979D02*
X107636628Y-125587217D01*
X107636628Y-125587217D02*
X107541390Y-125634836D01*
X107541390Y-125634836D02*
X107446152Y-125634836D01*
X107446152Y-125634836D02*
X107350914Y-125158646D01*
X107017580Y-126063408D02*
X107684247Y-126063408D01*
X107493771Y-126063408D02*
X107589009Y-126111027D01*
X107589009Y-126111027D02*
X107636628Y-126158646D01*
X107636628Y-126158646D02*
X107684247Y-126253884D01*
X107684247Y-126253884D02*
X107684247Y-126349122D01*
D11*
X104185588Y-95142438D02*
X104090350Y-95094819D01*
X104090350Y-95094819D02*
X103947493Y-95094819D01*
X103947493Y-95094819D02*
X103804636Y-95142438D01*
X103804636Y-95142438D02*
X103709398Y-95237676D01*
X103709398Y-95237676D02*
X103661779Y-95332914D01*
X103661779Y-95332914D02*
X103614160Y-95523390D01*
X103614160Y-95523390D02*
X103614160Y-95666247D01*
X103614160Y-95666247D02*
X103661779Y-95856723D01*
X103661779Y-95856723D02*
X103709398Y-95951961D01*
X103709398Y-95951961D02*
X103804636Y-96047200D01*
X103804636Y-96047200D02*
X103947493Y-96094819D01*
X103947493Y-96094819D02*
X104042731Y-96094819D01*
X104042731Y-96094819D02*
X104185588Y-96047200D01*
X104185588Y-96047200D02*
X104233207Y-95999580D01*
X104233207Y-95999580D02*
X104233207Y-95666247D01*
X104233207Y-95666247D02*
X104042731Y-95666247D01*
X104661779Y-96094819D02*
X104661779Y-95094819D01*
X104661779Y-95094819D02*
X105233207Y-96094819D01*
X105233207Y-96094819D02*
X105233207Y-95094819D01*
X105709398Y-96094819D02*
X105709398Y-95094819D01*
X105709398Y-95094819D02*
X105947493Y-95094819D01*
X105947493Y-95094819D02*
X106090350Y-95142438D01*
X106090350Y-95142438D02*
X106185588Y-95237676D01*
X106185588Y-95237676D02*
X106233207Y-95332914D01*
X106233207Y-95332914D02*
X106280826Y-95523390D01*
X106280826Y-95523390D02*
X106280826Y-95666247D01*
X106280826Y-95666247D02*
X106233207Y-95856723D01*
X106233207Y-95856723D02*
X106185588Y-95951961D01*
X106185588Y-95951961D02*
X106090350Y-96047200D01*
X106090350Y-96047200D02*
X105947493Y-96094819D01*
X105947493Y-96094819D02*
X105709398Y-96094819D01*
X114191541Y-95239819D02*
X114810588Y-95239819D01*
X114810588Y-95239819D02*
X114477255Y-95620771D01*
X114477255Y-95620771D02*
X114620112Y-95620771D01*
X114620112Y-95620771D02*
X114715350Y-95668390D01*
X114715350Y-95668390D02*
X114762969Y-95716009D01*
X114762969Y-95716009D02*
X114810588Y-95811247D01*
X114810588Y-95811247D02*
X114810588Y-96049342D01*
X114810588Y-96049342D02*
X114762969Y-96144580D01*
X114762969Y-96144580D02*
X114715350Y-96192200D01*
X114715350Y-96192200D02*
X114620112Y-96239819D01*
X114620112Y-96239819D02*
X114334398Y-96239819D01*
X114334398Y-96239819D02*
X114239160Y-96192200D01*
X114239160Y-96192200D02*
X114191541Y-96144580D01*
X115096303Y-95239819D02*
X115429636Y-96239819D01*
X115429636Y-96239819D02*
X115762969Y-95239819D01*
X116001065Y-95239819D02*
X116620112Y-95239819D01*
X116620112Y-95239819D02*
X116286779Y-95620771D01*
X116286779Y-95620771D02*
X116429636Y-95620771D01*
X116429636Y-95620771D02*
X116524874Y-95668390D01*
X116524874Y-95668390D02*
X116572493Y-95716009D01*
X116572493Y-95716009D02*
X116620112Y-95811247D01*
X116620112Y-95811247D02*
X116620112Y-96049342D01*
X116620112Y-96049342D02*
X116572493Y-96144580D01*
X116572493Y-96144580D02*
X116524874Y-96192200D01*
X116524874Y-96192200D02*
X116429636Y-96239819D01*
X116429636Y-96239819D02*
X116143922Y-96239819D01*
X116143922Y-96239819D02*
X116048684Y-96192200D01*
X116048684Y-96192200D02*
X116001065Y-96144580D01*
X114321541Y-134709819D02*
X114940588Y-134709819D01*
X114940588Y-134709819D02*
X114607255Y-135090771D01*
X114607255Y-135090771D02*
X114750112Y-135090771D01*
X114750112Y-135090771D02*
X114845350Y-135138390D01*
X114845350Y-135138390D02*
X114892969Y-135186009D01*
X114892969Y-135186009D02*
X114940588Y-135281247D01*
X114940588Y-135281247D02*
X114940588Y-135519342D01*
X114940588Y-135519342D02*
X114892969Y-135614580D01*
X114892969Y-135614580D02*
X114845350Y-135662200D01*
X114845350Y-135662200D02*
X114750112Y-135709819D01*
X114750112Y-135709819D02*
X114464398Y-135709819D01*
X114464398Y-135709819D02*
X114369160Y-135662200D01*
X114369160Y-135662200D02*
X114321541Y-135614580D01*
X115226303Y-134709819D02*
X115559636Y-135709819D01*
X115559636Y-135709819D02*
X115892969Y-134709819D01*
X116131065Y-134709819D02*
X116750112Y-134709819D01*
X116750112Y-134709819D02*
X116416779Y-135090771D01*
X116416779Y-135090771D02*
X116559636Y-135090771D01*
X116559636Y-135090771D02*
X116654874Y-135138390D01*
X116654874Y-135138390D02*
X116702493Y-135186009D01*
X116702493Y-135186009D02*
X116750112Y-135281247D01*
X116750112Y-135281247D02*
X116750112Y-135519342D01*
X116750112Y-135519342D02*
X116702493Y-135614580D01*
X116702493Y-135614580D02*
X116654874Y-135662200D01*
X116654874Y-135662200D02*
X116559636Y-135709819D01*
X116559636Y-135709819D02*
X116273922Y-135709819D01*
X116273922Y-135709819D02*
X116178684Y-135662200D01*
X116178684Y-135662200D02*
X116131065Y-135614580D01*
X119629160Y-75754104D02*
X120105350Y-75754104D01*
X119533922Y-76039819D02*
X119867255Y-75039819D01*
X119867255Y-75039819D02*
X120200588Y-76039819D01*
X120962493Y-75373152D02*
X120962493Y-76039819D01*
X120533922Y-75373152D02*
X120533922Y-75896961D01*
X120533922Y-75896961D02*
X120581541Y-75992200D01*
X120581541Y-75992200D02*
X120676779Y-76039819D01*
X120676779Y-76039819D02*
X120819636Y-76039819D01*
X120819636Y-76039819D02*
X120914874Y-75992200D01*
X120914874Y-75992200D02*
X120962493Y-75944580D01*
X121867255Y-76039819D02*
X121867255Y-75039819D01*
X121867255Y-75992200D02*
X121772017Y-76039819D01*
X121772017Y-76039819D02*
X121581541Y-76039819D01*
X121581541Y-76039819D02*
X121486303Y-75992200D01*
X121486303Y-75992200D02*
X121438684Y-75944580D01*
X121438684Y-75944580D02*
X121391065Y-75849342D01*
X121391065Y-75849342D02*
X121391065Y-75563628D01*
X121391065Y-75563628D02*
X121438684Y-75468390D01*
X121438684Y-75468390D02*
X121486303Y-75420771D01*
X121486303Y-75420771D02*
X121581541Y-75373152D01*
X121581541Y-75373152D02*
X121772017Y-75373152D01*
X121772017Y-75373152D02*
X121867255Y-75420771D01*
X122343446Y-76039819D02*
X122343446Y-75373152D01*
X122343446Y-75039819D02*
X122295827Y-75087438D01*
X122295827Y-75087438D02*
X122343446Y-75135057D01*
X122343446Y-75135057D02*
X122391065Y-75087438D01*
X122391065Y-75087438D02*
X122343446Y-75039819D01*
X122343446Y-75039819D02*
X122343446Y-75135057D01*
X122962493Y-76039819D02*
X122867255Y-75992200D01*
X122867255Y-75992200D02*
X122819636Y-75944580D01*
X122819636Y-75944580D02*
X122772017Y-75849342D01*
X122772017Y-75849342D02*
X122772017Y-75563628D01*
X122772017Y-75563628D02*
X122819636Y-75468390D01*
X122819636Y-75468390D02*
X122867255Y-75420771D01*
X122867255Y-75420771D02*
X122962493Y-75373152D01*
X122962493Y-75373152D02*
X123105350Y-75373152D01*
X123105350Y-75373152D02*
X123200588Y-75420771D01*
X123200588Y-75420771D02*
X123248207Y-75468390D01*
X123248207Y-75468390D02*
X123295826Y-75563628D01*
X123295826Y-75563628D02*
X123295826Y-75849342D01*
X123295826Y-75849342D02*
X123248207Y-75944580D01*
X123248207Y-75944580D02*
X123200588Y-75992200D01*
X123200588Y-75992200D02*
X123105350Y-76039819D01*
X123105350Y-76039819D02*
X122962493Y-76039819D01*
X124486303Y-76039819D02*
X124486303Y-75039819D01*
X124486303Y-75039819D02*
X124724398Y-75039819D01*
X124724398Y-75039819D02*
X124867255Y-75087438D01*
X124867255Y-75087438D02*
X124962493Y-75182676D01*
X124962493Y-75182676D02*
X125010112Y-75277914D01*
X125010112Y-75277914D02*
X125057731Y-75468390D01*
X125057731Y-75468390D02*
X125057731Y-75611247D01*
X125057731Y-75611247D02*
X125010112Y-75801723D01*
X125010112Y-75801723D02*
X124962493Y-75896961D01*
X124962493Y-75896961D02*
X124867255Y-75992200D01*
X124867255Y-75992200D02*
X124724398Y-76039819D01*
X124724398Y-76039819D02*
X124486303Y-76039819D01*
X125438684Y-75754104D02*
X125914874Y-75754104D01*
X125343446Y-76039819D02*
X125676779Y-75039819D01*
X125676779Y-75039819D02*
X126010112Y-76039819D01*
X126914874Y-75944580D02*
X126867255Y-75992200D01*
X126867255Y-75992200D02*
X126724398Y-76039819D01*
X126724398Y-76039819D02*
X126629160Y-76039819D01*
X126629160Y-76039819D02*
X126486303Y-75992200D01*
X126486303Y-75992200D02*
X126391065Y-75896961D01*
X126391065Y-75896961D02*
X126343446Y-75801723D01*
X126343446Y-75801723D02*
X126295827Y-75611247D01*
X126295827Y-75611247D02*
X126295827Y-75468390D01*
X126295827Y-75468390D02*
X126343446Y-75277914D01*
X126343446Y-75277914D02*
X126391065Y-75182676D01*
X126391065Y-75182676D02*
X126486303Y-75087438D01*
X126486303Y-75087438D02*
X126629160Y-75039819D01*
X126629160Y-75039819D02*
X126724398Y-75039819D01*
X126724398Y-75039819D02*
X126867255Y-75087438D01*
X126867255Y-75087438D02*
X126914874Y-75135057D01*
X125180588Y-99147438D02*
X125085350Y-99099819D01*
X125085350Y-99099819D02*
X124942493Y-99099819D01*
X124942493Y-99099819D02*
X124799636Y-99147438D01*
X124799636Y-99147438D02*
X124704398Y-99242676D01*
X124704398Y-99242676D02*
X124656779Y-99337914D01*
X124656779Y-99337914D02*
X124609160Y-99528390D01*
X124609160Y-99528390D02*
X124609160Y-99671247D01*
X124609160Y-99671247D02*
X124656779Y-99861723D01*
X124656779Y-99861723D02*
X124704398Y-99956961D01*
X124704398Y-99956961D02*
X124799636Y-100052200D01*
X124799636Y-100052200D02*
X124942493Y-100099819D01*
X124942493Y-100099819D02*
X125037731Y-100099819D01*
X125037731Y-100099819D02*
X125180588Y-100052200D01*
X125180588Y-100052200D02*
X125228207Y-100004580D01*
X125228207Y-100004580D02*
X125228207Y-99671247D01*
X125228207Y-99671247D02*
X125037731Y-99671247D01*
X125656779Y-100099819D02*
X125656779Y-99099819D01*
X125656779Y-99099819D02*
X126228207Y-100099819D01*
X126228207Y-100099819D02*
X126228207Y-99099819D01*
X126704398Y-100099819D02*
X126704398Y-99099819D01*
X126704398Y-99099819D02*
X126942493Y-99099819D01*
X126942493Y-99099819D02*
X127085350Y-99147438D01*
X127085350Y-99147438D02*
X127180588Y-99242676D01*
X127180588Y-99242676D02*
X127228207Y-99337914D01*
X127228207Y-99337914D02*
X127275826Y-99528390D01*
X127275826Y-99528390D02*
X127275826Y-99671247D01*
X127275826Y-99671247D02*
X127228207Y-99861723D01*
X127228207Y-99861723D02*
X127180588Y-99956961D01*
X127180588Y-99956961D02*
X127085350Y-100052200D01*
X127085350Y-100052200D02*
X126942493Y-100099819D01*
X126942493Y-100099819D02*
X126704398Y-100099819D01*
X125582969Y-81449819D02*
X125106779Y-81449819D01*
X125106779Y-81449819D02*
X125059160Y-81926009D01*
X125059160Y-81926009D02*
X125106779Y-81878390D01*
X125106779Y-81878390D02*
X125202017Y-81830771D01*
X125202017Y-81830771D02*
X125440112Y-81830771D01*
X125440112Y-81830771D02*
X125535350Y-81878390D01*
X125535350Y-81878390D02*
X125582969Y-81926009D01*
X125582969Y-81926009D02*
X125630588Y-82021247D01*
X125630588Y-82021247D02*
X125630588Y-82259342D01*
X125630588Y-82259342D02*
X125582969Y-82354580D01*
X125582969Y-82354580D02*
X125535350Y-82402200D01*
X125535350Y-82402200D02*
X125440112Y-82449819D01*
X125440112Y-82449819D02*
X125202017Y-82449819D01*
X125202017Y-82449819D02*
X125106779Y-82402200D01*
X125106779Y-82402200D02*
X125059160Y-82354580D01*
X125916303Y-81449819D02*
X126249636Y-82449819D01*
X126249636Y-82449819D02*
X126582969Y-81449819D01*
X140396779Y-63109819D02*
X140396779Y-62109819D01*
X140396779Y-62586009D02*
X140968207Y-62586009D01*
X140968207Y-63109819D02*
X140968207Y-62109819D01*
X141825350Y-63062200D02*
X141730112Y-63109819D01*
X141730112Y-63109819D02*
X141539636Y-63109819D01*
X141539636Y-63109819D02*
X141444398Y-63062200D01*
X141444398Y-63062200D02*
X141396779Y-62966961D01*
X141396779Y-62966961D02*
X141396779Y-62586009D01*
X141396779Y-62586009D02*
X141444398Y-62490771D01*
X141444398Y-62490771D02*
X141539636Y-62443152D01*
X141539636Y-62443152D02*
X141730112Y-62443152D01*
X141730112Y-62443152D02*
X141825350Y-62490771D01*
X141825350Y-62490771D02*
X141872969Y-62586009D01*
X141872969Y-62586009D02*
X141872969Y-62681247D01*
X141872969Y-62681247D02*
X141396779Y-62776485D01*
X142730112Y-63109819D02*
X142730112Y-62586009D01*
X142730112Y-62586009D02*
X142682493Y-62490771D01*
X142682493Y-62490771D02*
X142587255Y-62443152D01*
X142587255Y-62443152D02*
X142396779Y-62443152D01*
X142396779Y-62443152D02*
X142301541Y-62490771D01*
X142730112Y-63062200D02*
X142634874Y-63109819D01*
X142634874Y-63109819D02*
X142396779Y-63109819D01*
X142396779Y-63109819D02*
X142301541Y-63062200D01*
X142301541Y-63062200D02*
X142253922Y-62966961D01*
X142253922Y-62966961D02*
X142253922Y-62871723D01*
X142253922Y-62871723D02*
X142301541Y-62776485D01*
X142301541Y-62776485D02*
X142396779Y-62728866D01*
X142396779Y-62728866D02*
X142634874Y-62728866D01*
X142634874Y-62728866D02*
X142730112Y-62681247D01*
X143634874Y-63109819D02*
X143634874Y-62109819D01*
X143634874Y-63062200D02*
X143539636Y-63109819D01*
X143539636Y-63109819D02*
X143349160Y-63109819D01*
X143349160Y-63109819D02*
X143253922Y-63062200D01*
X143253922Y-63062200D02*
X143206303Y-63014580D01*
X143206303Y-63014580D02*
X143158684Y-62919342D01*
X143158684Y-62919342D02*
X143158684Y-62633628D01*
X143158684Y-62633628D02*
X143206303Y-62538390D01*
X143206303Y-62538390D02*
X143253922Y-62490771D01*
X143253922Y-62490771D02*
X143349160Y-62443152D01*
X143349160Y-62443152D02*
X143539636Y-62443152D01*
X143539636Y-62443152D02*
X143634874Y-62490771D01*
X144111065Y-62443152D02*
X144111065Y-63443152D01*
X144111065Y-62490771D02*
X144206303Y-62443152D01*
X144206303Y-62443152D02*
X144396779Y-62443152D01*
X144396779Y-62443152D02*
X144492017Y-62490771D01*
X144492017Y-62490771D02*
X144539636Y-62538390D01*
X144539636Y-62538390D02*
X144587255Y-62633628D01*
X144587255Y-62633628D02*
X144587255Y-62919342D01*
X144587255Y-62919342D02*
X144539636Y-63014580D01*
X144539636Y-63014580D02*
X144492017Y-63062200D01*
X144492017Y-63062200D02*
X144396779Y-63109819D01*
X144396779Y-63109819D02*
X144206303Y-63109819D01*
X144206303Y-63109819D02*
X144111065Y-63062200D01*
X145015827Y-63109819D02*
X145015827Y-62109819D01*
X145444398Y-63109819D02*
X145444398Y-62586009D01*
X145444398Y-62586009D02*
X145396779Y-62490771D01*
X145396779Y-62490771D02*
X145301541Y-62443152D01*
X145301541Y-62443152D02*
X145158684Y-62443152D01*
X145158684Y-62443152D02*
X145063446Y-62490771D01*
X145063446Y-62490771D02*
X145015827Y-62538390D01*
X146063446Y-63109819D02*
X145968208Y-63062200D01*
X145968208Y-63062200D02*
X145920589Y-63014580D01*
X145920589Y-63014580D02*
X145872970Y-62919342D01*
X145872970Y-62919342D02*
X145872970Y-62633628D01*
X145872970Y-62633628D02*
X145920589Y-62538390D01*
X145920589Y-62538390D02*
X145968208Y-62490771D01*
X145968208Y-62490771D02*
X146063446Y-62443152D01*
X146063446Y-62443152D02*
X146206303Y-62443152D01*
X146206303Y-62443152D02*
X146301541Y-62490771D01*
X146301541Y-62490771D02*
X146349160Y-62538390D01*
X146349160Y-62538390D02*
X146396779Y-62633628D01*
X146396779Y-62633628D02*
X146396779Y-62919342D01*
X146396779Y-62919342D02*
X146349160Y-63014580D01*
X146349160Y-63014580D02*
X146301541Y-63062200D01*
X146301541Y-63062200D02*
X146206303Y-63109819D01*
X146206303Y-63109819D02*
X146063446Y-63109819D01*
X146825351Y-62443152D02*
X146825351Y-63109819D01*
X146825351Y-62538390D02*
X146872970Y-62490771D01*
X146872970Y-62490771D02*
X146968208Y-62443152D01*
X146968208Y-62443152D02*
X147111065Y-62443152D01*
X147111065Y-62443152D02*
X147206303Y-62490771D01*
X147206303Y-62490771D02*
X147253922Y-62586009D01*
X147253922Y-62586009D02*
X147253922Y-63109819D01*
X148111065Y-63062200D02*
X148015827Y-63109819D01*
X148015827Y-63109819D02*
X147825351Y-63109819D01*
X147825351Y-63109819D02*
X147730113Y-63062200D01*
X147730113Y-63062200D02*
X147682494Y-62966961D01*
X147682494Y-62966961D02*
X147682494Y-62586009D01*
X147682494Y-62586009D02*
X147730113Y-62490771D01*
X147730113Y-62490771D02*
X147825351Y-62443152D01*
X147825351Y-62443152D02*
X148015827Y-62443152D01*
X148015827Y-62443152D02*
X148111065Y-62490771D01*
X148111065Y-62490771D02*
X148158684Y-62586009D01*
X148158684Y-62586009D02*
X148158684Y-62681247D01*
X148158684Y-62681247D02*
X147682494Y-62776485D01*
X149301542Y-62824104D02*
X149777732Y-62824104D01*
X149206304Y-63109819D02*
X149539637Y-62109819D01*
X149539637Y-62109819D02*
X149872970Y-63109819D01*
X150206304Y-63109819D02*
X150206304Y-62443152D01*
X150206304Y-62538390D02*
X150253923Y-62490771D01*
X150253923Y-62490771D02*
X150349161Y-62443152D01*
X150349161Y-62443152D02*
X150492018Y-62443152D01*
X150492018Y-62443152D02*
X150587256Y-62490771D01*
X150587256Y-62490771D02*
X150634875Y-62586009D01*
X150634875Y-62586009D02*
X150634875Y-63109819D01*
X150634875Y-62586009D02*
X150682494Y-62490771D01*
X150682494Y-62490771D02*
X150777732Y-62443152D01*
X150777732Y-62443152D02*
X150920589Y-62443152D01*
X150920589Y-62443152D02*
X151015828Y-62490771D01*
X151015828Y-62490771D02*
X151063447Y-62586009D01*
X151063447Y-62586009D02*
X151063447Y-63109819D01*
X151539637Y-62443152D02*
X151539637Y-63443152D01*
X151539637Y-62490771D02*
X151634875Y-62443152D01*
X151634875Y-62443152D02*
X151825351Y-62443152D01*
X151825351Y-62443152D02*
X151920589Y-62490771D01*
X151920589Y-62490771D02*
X151968208Y-62538390D01*
X151968208Y-62538390D02*
X152015827Y-62633628D01*
X152015827Y-62633628D02*
X152015827Y-62919342D01*
X152015827Y-62919342D02*
X151968208Y-63014580D01*
X151968208Y-63014580D02*
X151920589Y-63062200D01*
X151920589Y-63062200D02*
X151825351Y-63109819D01*
X151825351Y-63109819D02*
X151634875Y-63109819D01*
X151634875Y-63109819D02*
X151539637Y-63062200D01*
X124483097Y-146830025D02*
X124099764Y-146282406D01*
X123825954Y-146830025D02*
X123825954Y-145680025D01*
X123825954Y-145680025D02*
X124264049Y-145680025D01*
X124264049Y-145680025D02*
X124373573Y-145734787D01*
X124373573Y-145734787D02*
X124428335Y-145789549D01*
X124428335Y-145789549D02*
X124483097Y-145899073D01*
X124483097Y-145899073D02*
X124483097Y-146063359D01*
X124483097Y-146063359D02*
X124428335Y-146172883D01*
X124428335Y-146172883D02*
X124373573Y-146227644D01*
X124373573Y-146227644D02*
X124264049Y-146282406D01*
X124264049Y-146282406D02*
X123825954Y-146282406D01*
X125468811Y-146830025D02*
X125468811Y-146227644D01*
X125468811Y-146227644D02*
X125414049Y-146118121D01*
X125414049Y-146118121D02*
X125304525Y-146063359D01*
X125304525Y-146063359D02*
X125085478Y-146063359D01*
X125085478Y-146063359D02*
X124975954Y-146118121D01*
X125468811Y-146775264D02*
X125359287Y-146830025D01*
X125359287Y-146830025D02*
X125085478Y-146830025D01*
X125085478Y-146830025D02*
X124975954Y-146775264D01*
X124975954Y-146775264D02*
X124921192Y-146665740D01*
X124921192Y-146665740D02*
X124921192Y-146556216D01*
X124921192Y-146556216D02*
X124975954Y-146446692D01*
X124975954Y-146446692D02*
X125085478Y-146391930D01*
X125085478Y-146391930D02*
X125359287Y-146391930D01*
X125359287Y-146391930D02*
X125468811Y-146337168D01*
X125961668Y-146775264D02*
X126071192Y-146830025D01*
X126071192Y-146830025D02*
X126290240Y-146830025D01*
X126290240Y-146830025D02*
X126399763Y-146775264D01*
X126399763Y-146775264D02*
X126454525Y-146665740D01*
X126454525Y-146665740D02*
X126454525Y-146610978D01*
X126454525Y-146610978D02*
X126399763Y-146501454D01*
X126399763Y-146501454D02*
X126290240Y-146446692D01*
X126290240Y-146446692D02*
X126125954Y-146446692D01*
X126125954Y-146446692D02*
X126016430Y-146391930D01*
X126016430Y-146391930D02*
X125961668Y-146282406D01*
X125961668Y-146282406D02*
X125961668Y-146227644D01*
X125961668Y-146227644D02*
X126016430Y-146118121D01*
X126016430Y-146118121D02*
X126125954Y-146063359D01*
X126125954Y-146063359D02*
X126290240Y-146063359D01*
X126290240Y-146063359D02*
X126399763Y-146118121D01*
X126947382Y-146063359D02*
X126947382Y-147213359D01*
X126947382Y-146118121D02*
X127056906Y-146063359D01*
X127056906Y-146063359D02*
X127275953Y-146063359D01*
X127275953Y-146063359D02*
X127385477Y-146118121D01*
X127385477Y-146118121D02*
X127440239Y-146172883D01*
X127440239Y-146172883D02*
X127495001Y-146282406D01*
X127495001Y-146282406D02*
X127495001Y-146610978D01*
X127495001Y-146610978D02*
X127440239Y-146720502D01*
X127440239Y-146720502D02*
X127385477Y-146775264D01*
X127385477Y-146775264D02*
X127275953Y-146830025D01*
X127275953Y-146830025D02*
X127056906Y-146830025D01*
X127056906Y-146830025D02*
X126947382Y-146775264D01*
X127987858Y-146830025D02*
X127987858Y-145680025D01*
X127987858Y-146118121D02*
X128097382Y-146063359D01*
X128097382Y-146063359D02*
X128316429Y-146063359D01*
X128316429Y-146063359D02*
X128425953Y-146118121D01*
X128425953Y-146118121D02*
X128480715Y-146172883D01*
X128480715Y-146172883D02*
X128535477Y-146282406D01*
X128535477Y-146282406D02*
X128535477Y-146610978D01*
X128535477Y-146610978D02*
X128480715Y-146720502D01*
X128480715Y-146720502D02*
X128425953Y-146775264D01*
X128425953Y-146775264D02*
X128316429Y-146830025D01*
X128316429Y-146830025D02*
X128097382Y-146830025D01*
X128097382Y-146830025D02*
X127987858Y-146775264D01*
X129466429Y-146775264D02*
X129356905Y-146830025D01*
X129356905Y-146830025D02*
X129137858Y-146830025D01*
X129137858Y-146830025D02*
X129028334Y-146775264D01*
X129028334Y-146775264D02*
X128973572Y-146665740D01*
X128973572Y-146665740D02*
X128973572Y-146227644D01*
X128973572Y-146227644D02*
X129028334Y-146118121D01*
X129028334Y-146118121D02*
X129137858Y-146063359D01*
X129137858Y-146063359D02*
X129356905Y-146063359D01*
X129356905Y-146063359D02*
X129466429Y-146118121D01*
X129466429Y-146118121D02*
X129521191Y-146227644D01*
X129521191Y-146227644D02*
X129521191Y-146337168D01*
X129521191Y-146337168D02*
X128973572Y-146446692D01*
X130014048Y-146830025D02*
X130014048Y-146063359D01*
X130014048Y-146282406D02*
X130068810Y-146172883D01*
X130068810Y-146172883D02*
X130123572Y-146118121D01*
X130123572Y-146118121D02*
X130233096Y-146063359D01*
X130233096Y-146063359D02*
X130342619Y-146063359D01*
X130725953Y-146830025D02*
X130725953Y-146063359D01*
X130725953Y-146282406D02*
X130780715Y-146172883D01*
X130780715Y-146172883D02*
X130835477Y-146118121D01*
X130835477Y-146118121D02*
X130945001Y-146063359D01*
X130945001Y-146063359D02*
X131054524Y-146063359D01*
X131328334Y-146063359D02*
X131602144Y-146830025D01*
X131875953Y-146063359D02*
X131602144Y-146830025D01*
X131602144Y-146830025D02*
X131492620Y-147103835D01*
X131492620Y-147103835D02*
X131437858Y-147158597D01*
X131437858Y-147158597D02*
X131328334Y-147213359D01*
X133190238Y-146830025D02*
X133190238Y-145680025D01*
X133190238Y-145680025D02*
X133628333Y-145680025D01*
X133628333Y-145680025D02*
X133737857Y-145734787D01*
X133737857Y-145734787D02*
X133792619Y-145789549D01*
X133792619Y-145789549D02*
X133847381Y-145899073D01*
X133847381Y-145899073D02*
X133847381Y-146063359D01*
X133847381Y-146063359D02*
X133792619Y-146172883D01*
X133792619Y-146172883D02*
X133737857Y-146227644D01*
X133737857Y-146227644D02*
X133628333Y-146282406D01*
X133628333Y-146282406D02*
X133190238Y-146282406D01*
X134340238Y-146830025D02*
X134340238Y-146063359D01*
X134340238Y-145680025D02*
X134285476Y-145734787D01*
X134285476Y-145734787D02*
X134340238Y-145789549D01*
X134340238Y-145789549D02*
X134395000Y-145734787D01*
X134395000Y-145734787D02*
X134340238Y-145680025D01*
X134340238Y-145680025D02*
X134340238Y-145789549D01*
X135709285Y-146501454D02*
X136256904Y-146501454D01*
X135599761Y-146830025D02*
X135983095Y-145680025D01*
X135983095Y-145680025D02*
X136366428Y-146830025D01*
X137242618Y-146063359D02*
X137242618Y-146830025D01*
X136749761Y-146063359D02*
X136749761Y-146665740D01*
X136749761Y-146665740D02*
X136804523Y-146775264D01*
X136804523Y-146775264D02*
X136914047Y-146830025D01*
X136914047Y-146830025D02*
X137078332Y-146830025D01*
X137078332Y-146830025D02*
X137187856Y-146775264D01*
X137187856Y-146775264D02*
X137242618Y-146720502D01*
X138283094Y-146830025D02*
X138283094Y-145680025D01*
X138283094Y-146775264D02*
X138173570Y-146830025D01*
X138173570Y-146830025D02*
X137954523Y-146830025D01*
X137954523Y-146830025D02*
X137844999Y-146775264D01*
X137844999Y-146775264D02*
X137790237Y-146720502D01*
X137790237Y-146720502D02*
X137735475Y-146610978D01*
X137735475Y-146610978D02*
X137735475Y-146282406D01*
X137735475Y-146282406D02*
X137790237Y-146172883D01*
X137790237Y-146172883D02*
X137844999Y-146118121D01*
X137844999Y-146118121D02*
X137954523Y-146063359D01*
X137954523Y-146063359D02*
X138173570Y-146063359D01*
X138173570Y-146063359D02*
X138283094Y-146118121D01*
X138830713Y-146830025D02*
X138830713Y-146063359D01*
X138830713Y-145680025D02*
X138775951Y-145734787D01*
X138775951Y-145734787D02*
X138830713Y-145789549D01*
X138830713Y-145789549D02*
X138885475Y-145734787D01*
X138885475Y-145734787D02*
X138830713Y-145680025D01*
X138830713Y-145680025D02*
X138830713Y-145789549D01*
X139542618Y-146830025D02*
X139433094Y-146775264D01*
X139433094Y-146775264D02*
X139378332Y-146720502D01*
X139378332Y-146720502D02*
X139323570Y-146610978D01*
X139323570Y-146610978D02*
X139323570Y-146282406D01*
X139323570Y-146282406D02*
X139378332Y-146172883D01*
X139378332Y-146172883D02*
X139433094Y-146118121D01*
X139433094Y-146118121D02*
X139542618Y-146063359D01*
X139542618Y-146063359D02*
X139706903Y-146063359D01*
X139706903Y-146063359D02*
X139816427Y-146118121D01*
X139816427Y-146118121D02*
X139871189Y-146172883D01*
X139871189Y-146172883D02*
X139925951Y-146282406D01*
X139925951Y-146282406D02*
X139925951Y-146610978D01*
X139925951Y-146610978D02*
X139871189Y-146720502D01*
X139871189Y-146720502D02*
X139816427Y-146775264D01*
X139816427Y-146775264D02*
X139706903Y-146830025D01*
X139706903Y-146830025D02*
X139542618Y-146830025D01*
X141294998Y-146830025D02*
X141294998Y-145680025D01*
X141294998Y-145680025D02*
X141733093Y-145680025D01*
X141733093Y-145680025D02*
X141842617Y-145734787D01*
X141842617Y-145734787D02*
X141897379Y-145789549D01*
X141897379Y-145789549D02*
X141952141Y-145899073D01*
X141952141Y-145899073D02*
X141952141Y-146063359D01*
X141952141Y-146063359D02*
X141897379Y-146172883D01*
X141897379Y-146172883D02*
X141842617Y-146227644D01*
X141842617Y-146227644D02*
X141733093Y-146282406D01*
X141733093Y-146282406D02*
X141294998Y-146282406D01*
X142609284Y-146830025D02*
X142499760Y-146775264D01*
X142499760Y-146775264D02*
X142444998Y-146665740D01*
X142444998Y-146665740D02*
X142444998Y-145680025D01*
X143540236Y-146830025D02*
X143540236Y-146227644D01*
X143540236Y-146227644D02*
X143485474Y-146118121D01*
X143485474Y-146118121D02*
X143375950Y-146063359D01*
X143375950Y-146063359D02*
X143156903Y-146063359D01*
X143156903Y-146063359D02*
X143047379Y-146118121D01*
X143540236Y-146775264D02*
X143430712Y-146830025D01*
X143430712Y-146830025D02*
X143156903Y-146830025D01*
X143156903Y-146830025D02*
X143047379Y-146775264D01*
X143047379Y-146775264D02*
X142992617Y-146665740D01*
X142992617Y-146665740D02*
X142992617Y-146556216D01*
X142992617Y-146556216D02*
X143047379Y-146446692D01*
X143047379Y-146446692D02*
X143156903Y-146391930D01*
X143156903Y-146391930D02*
X143430712Y-146391930D01*
X143430712Y-146391930D02*
X143540236Y-146337168D01*
X143978331Y-146063359D02*
X144252141Y-146830025D01*
X144525950Y-146063359D02*
X144252141Y-146830025D01*
X144252141Y-146830025D02*
X144142617Y-147103835D01*
X144142617Y-147103835D02*
X144087855Y-147158597D01*
X144087855Y-147158597D02*
X143978331Y-147213359D01*
X145402140Y-146775264D02*
X145292616Y-146830025D01*
X145292616Y-146830025D02*
X145073569Y-146830025D01*
X145073569Y-146830025D02*
X144964045Y-146775264D01*
X144964045Y-146775264D02*
X144909283Y-146665740D01*
X144909283Y-146665740D02*
X144909283Y-146227644D01*
X144909283Y-146227644D02*
X144964045Y-146118121D01*
X144964045Y-146118121D02*
X145073569Y-146063359D01*
X145073569Y-146063359D02*
X145292616Y-146063359D01*
X145292616Y-146063359D02*
X145402140Y-146118121D01*
X145402140Y-146118121D02*
X145456902Y-146227644D01*
X145456902Y-146227644D02*
X145456902Y-146337168D01*
X145456902Y-146337168D02*
X144909283Y-146446692D01*
X145949759Y-146830025D02*
X145949759Y-146063359D01*
X145949759Y-146282406D02*
X146004521Y-146172883D01*
X146004521Y-146172883D02*
X146059283Y-146118121D01*
X146059283Y-146118121D02*
X146168807Y-146063359D01*
X146168807Y-146063359D02*
X146278330Y-146063359D01*
X133327143Y-147914795D02*
X133600953Y-148681461D01*
X133600953Y-148681461D02*
X133874762Y-147914795D01*
X134531905Y-147531461D02*
X134641428Y-147531461D01*
X134641428Y-147531461D02*
X134750952Y-147586223D01*
X134750952Y-147586223D02*
X134805714Y-147640985D01*
X134805714Y-147640985D02*
X134860476Y-147750509D01*
X134860476Y-147750509D02*
X134915238Y-147969557D01*
X134915238Y-147969557D02*
X134915238Y-148243366D01*
X134915238Y-148243366D02*
X134860476Y-148462414D01*
X134860476Y-148462414D02*
X134805714Y-148571938D01*
X134805714Y-148571938D02*
X134750952Y-148626700D01*
X134750952Y-148626700D02*
X134641428Y-148681461D01*
X134641428Y-148681461D02*
X134531905Y-148681461D01*
X134531905Y-148681461D02*
X134422381Y-148626700D01*
X134422381Y-148626700D02*
X134367619Y-148571938D01*
X134367619Y-148571938D02*
X134312857Y-148462414D01*
X134312857Y-148462414D02*
X134258095Y-148243366D01*
X134258095Y-148243366D02*
X134258095Y-147969557D01*
X134258095Y-147969557D02*
X134312857Y-147750509D01*
X134312857Y-147750509D02*
X134367619Y-147640985D01*
X134367619Y-147640985D02*
X134422381Y-147586223D01*
X134422381Y-147586223D02*
X134531905Y-147531461D01*
X135408095Y-148571938D02*
X135462857Y-148626700D01*
X135462857Y-148626700D02*
X135408095Y-148681461D01*
X135408095Y-148681461D02*
X135353333Y-148626700D01*
X135353333Y-148626700D02*
X135408095Y-148571938D01*
X135408095Y-148571938D02*
X135408095Y-148681461D01*
X136558095Y-148681461D02*
X135900952Y-148681461D01*
X136229524Y-148681461D02*
X136229524Y-147531461D01*
X136229524Y-147531461D02*
X136120000Y-147695747D01*
X136120000Y-147695747D02*
X136010476Y-147805271D01*
X136010476Y-147805271D02*
X135900952Y-147860033D01*
X149861371Y-93325826D02*
X151361371Y-93325826D01*
X151361371Y-93325826D02*
X150289942Y-93825826D01*
X150289942Y-93825826D02*
X151361371Y-94325826D01*
X151361371Y-94325826D02*
X149861371Y-94325826D01*
X149861371Y-95254398D02*
X149932800Y-95111541D01*
X149932800Y-95111541D02*
X150004228Y-95040112D01*
X150004228Y-95040112D02*
X150147085Y-94968684D01*
X150147085Y-94968684D02*
X150575657Y-94968684D01*
X150575657Y-94968684D02*
X150718514Y-95040112D01*
X150718514Y-95040112D02*
X150789942Y-95111541D01*
X150789942Y-95111541D02*
X150861371Y-95254398D01*
X150861371Y-95254398D02*
X150861371Y-95468684D01*
X150861371Y-95468684D02*
X150789942Y-95611541D01*
X150789942Y-95611541D02*
X150718514Y-95682970D01*
X150718514Y-95682970D02*
X150575657Y-95754398D01*
X150575657Y-95754398D02*
X150147085Y-95754398D01*
X150147085Y-95754398D02*
X150004228Y-95682970D01*
X150004228Y-95682970D02*
X149932800Y-95611541D01*
X149932800Y-95611541D02*
X149861371Y-95468684D01*
X149861371Y-95468684D02*
X149861371Y-95254398D01*
X150861371Y-97040113D02*
X149861371Y-97040113D01*
X150861371Y-96397255D02*
X150075657Y-96397255D01*
X150075657Y-96397255D02*
X149932800Y-96468684D01*
X149932800Y-96468684D02*
X149861371Y-96611541D01*
X149861371Y-96611541D02*
X149861371Y-96825827D01*
X149861371Y-96825827D02*
X149932800Y-96968684D01*
X149932800Y-96968684D02*
X150004228Y-97040113D01*
X150861371Y-97754398D02*
X149861371Y-97754398D01*
X150718514Y-97754398D02*
X150789942Y-97825827D01*
X150789942Y-97825827D02*
X150861371Y-97968684D01*
X150861371Y-97968684D02*
X150861371Y-98182970D01*
X150861371Y-98182970D02*
X150789942Y-98325827D01*
X150789942Y-98325827D02*
X150647085Y-98397256D01*
X150647085Y-98397256D02*
X149861371Y-98397256D01*
X150861371Y-98897256D02*
X150861371Y-99468684D01*
X151361371Y-99111541D02*
X150075657Y-99111541D01*
X150075657Y-99111541D02*
X149932800Y-99182970D01*
X149932800Y-99182970D02*
X149861371Y-99325827D01*
X149861371Y-99325827D02*
X149861371Y-99468684D01*
X149861371Y-101111541D02*
X151361371Y-101111541D01*
X151361371Y-101111541D02*
X151361371Y-101682970D01*
X151361371Y-101682970D02*
X151289942Y-101825827D01*
X151289942Y-101825827D02*
X151218514Y-101897256D01*
X151218514Y-101897256D02*
X151075657Y-101968684D01*
X151075657Y-101968684D02*
X150861371Y-101968684D01*
X150861371Y-101968684D02*
X150718514Y-101897256D01*
X150718514Y-101897256D02*
X150647085Y-101825827D01*
X150647085Y-101825827D02*
X150575657Y-101682970D01*
X150575657Y-101682970D02*
X150575657Y-101111541D01*
X149861371Y-102611541D02*
X150861371Y-102611541D01*
X151361371Y-102611541D02*
X151289942Y-102540113D01*
X151289942Y-102540113D02*
X151218514Y-102611541D01*
X151218514Y-102611541D02*
X151289942Y-102682970D01*
X151289942Y-102682970D02*
X151361371Y-102611541D01*
X151361371Y-102611541D02*
X151218514Y-102611541D01*
X149861371Y-104682970D02*
X149932800Y-104540113D01*
X149932800Y-104540113D02*
X150004228Y-104468684D01*
X150004228Y-104468684D02*
X150147085Y-104397256D01*
X150147085Y-104397256D02*
X150575657Y-104397256D01*
X150575657Y-104397256D02*
X150718514Y-104468684D01*
X150718514Y-104468684D02*
X150789942Y-104540113D01*
X150789942Y-104540113D02*
X150861371Y-104682970D01*
X150861371Y-104682970D02*
X150861371Y-104897256D01*
X150861371Y-104897256D02*
X150789942Y-105040113D01*
X150789942Y-105040113D02*
X150718514Y-105111542D01*
X150718514Y-105111542D02*
X150575657Y-105182970D01*
X150575657Y-105182970D02*
X150147085Y-105182970D01*
X150147085Y-105182970D02*
X150004228Y-105111542D01*
X150004228Y-105111542D02*
X149932800Y-105040113D01*
X149932800Y-105040113D02*
X149861371Y-104897256D01*
X149861371Y-104897256D02*
X149861371Y-104682970D01*
X150861371Y-105825827D02*
X149861371Y-105825827D01*
X150718514Y-105825827D02*
X150789942Y-105897256D01*
X150789942Y-105897256D02*
X150861371Y-106040113D01*
X150861371Y-106040113D02*
X150861371Y-106254399D01*
X150861371Y-106254399D02*
X150789942Y-106397256D01*
X150789942Y-106397256D02*
X150647085Y-106468685D01*
X150647085Y-106468685D02*
X149861371Y-106468685D01*
X150861371Y-108111542D02*
X150861371Y-108682970D01*
X151361371Y-108325827D02*
X150075657Y-108325827D01*
X150075657Y-108325827D02*
X149932800Y-108397256D01*
X149932800Y-108397256D02*
X149861371Y-108540113D01*
X149861371Y-108540113D02*
X149861371Y-108682970D01*
X149861371Y-109182970D02*
X151361371Y-109182970D01*
X149861371Y-109825828D02*
X150647085Y-109825828D01*
X150647085Y-109825828D02*
X150789942Y-109754399D01*
X150789942Y-109754399D02*
X150861371Y-109611542D01*
X150861371Y-109611542D02*
X150861371Y-109397256D01*
X150861371Y-109397256D02*
X150789942Y-109254399D01*
X150789942Y-109254399D02*
X150718514Y-109182970D01*
X149861371Y-110540113D02*
X150861371Y-110540113D01*
X151361371Y-110540113D02*
X151289942Y-110468685D01*
X151289942Y-110468685D02*
X151218514Y-110540113D01*
X151218514Y-110540113D02*
X151289942Y-110611542D01*
X151289942Y-110611542D02*
X151361371Y-110540113D01*
X151361371Y-110540113D02*
X151218514Y-110540113D01*
X149932800Y-111182971D02*
X149861371Y-111325828D01*
X149861371Y-111325828D02*
X149861371Y-111611542D01*
X149861371Y-111611542D02*
X149932800Y-111754399D01*
X149932800Y-111754399D02*
X150075657Y-111825828D01*
X150075657Y-111825828D02*
X150147085Y-111825828D01*
X150147085Y-111825828D02*
X150289942Y-111754399D01*
X150289942Y-111754399D02*
X150361371Y-111611542D01*
X150361371Y-111611542D02*
X150361371Y-111397257D01*
X150361371Y-111397257D02*
X150432800Y-111254399D01*
X150432800Y-111254399D02*
X150575657Y-111182971D01*
X150575657Y-111182971D02*
X150647085Y-111182971D01*
X150647085Y-111182971D02*
X150789942Y-111254399D01*
X150789942Y-111254399D02*
X150861371Y-111397257D01*
X150861371Y-111397257D02*
X150861371Y-111611542D01*
X150861371Y-111611542D02*
X150789942Y-111754399D01*
X149932800Y-113540114D02*
X149861371Y-113754400D01*
X149861371Y-113754400D02*
X149861371Y-114111542D01*
X149861371Y-114111542D02*
X149932800Y-114254400D01*
X149932800Y-114254400D02*
X150004228Y-114325828D01*
X150004228Y-114325828D02*
X150147085Y-114397257D01*
X150147085Y-114397257D02*
X150289942Y-114397257D01*
X150289942Y-114397257D02*
X150432800Y-114325828D01*
X150432800Y-114325828D02*
X150504228Y-114254400D01*
X150504228Y-114254400D02*
X150575657Y-114111542D01*
X150575657Y-114111542D02*
X150647085Y-113825828D01*
X150647085Y-113825828D02*
X150718514Y-113682971D01*
X150718514Y-113682971D02*
X150789942Y-113611542D01*
X150789942Y-113611542D02*
X150932800Y-113540114D01*
X150932800Y-113540114D02*
X151075657Y-113540114D01*
X151075657Y-113540114D02*
X151218514Y-113611542D01*
X151218514Y-113611542D02*
X151289942Y-113682971D01*
X151289942Y-113682971D02*
X151361371Y-113825828D01*
X151361371Y-113825828D02*
X151361371Y-114182971D01*
X151361371Y-114182971D02*
X151289942Y-114397257D01*
X149861371Y-115040113D02*
X150861371Y-115040113D01*
X151361371Y-115040113D02*
X151289942Y-114968685D01*
X151289942Y-114968685D02*
X151218514Y-115040113D01*
X151218514Y-115040113D02*
X151289942Y-115111542D01*
X151289942Y-115111542D02*
X151361371Y-115040113D01*
X151361371Y-115040113D02*
X151218514Y-115040113D01*
X149861371Y-116397257D02*
X151361371Y-116397257D01*
X149932800Y-116397257D02*
X149861371Y-116254399D01*
X149861371Y-116254399D02*
X149861371Y-115968685D01*
X149861371Y-115968685D02*
X149932800Y-115825828D01*
X149932800Y-115825828D02*
X150004228Y-115754399D01*
X150004228Y-115754399D02*
X150147085Y-115682971D01*
X150147085Y-115682971D02*
X150575657Y-115682971D01*
X150575657Y-115682971D02*
X150718514Y-115754399D01*
X150718514Y-115754399D02*
X150789942Y-115825828D01*
X150789942Y-115825828D02*
X150861371Y-115968685D01*
X150861371Y-115968685D02*
X150861371Y-116254399D01*
X150861371Y-116254399D02*
X150789942Y-116397257D01*
X149932800Y-117682971D02*
X149861371Y-117540114D01*
X149861371Y-117540114D02*
X149861371Y-117254400D01*
X149861371Y-117254400D02*
X149932800Y-117111542D01*
X149932800Y-117111542D02*
X150075657Y-117040114D01*
X150075657Y-117040114D02*
X150647085Y-117040114D01*
X150647085Y-117040114D02*
X150789942Y-117111542D01*
X150789942Y-117111542D02*
X150861371Y-117254400D01*
X150861371Y-117254400D02*
X150861371Y-117540114D01*
X150861371Y-117540114D02*
X150789942Y-117682971D01*
X150789942Y-117682971D02*
X150647085Y-117754400D01*
X150647085Y-117754400D02*
X150504228Y-117754400D01*
X150504228Y-117754400D02*
X150361371Y-117040114D01*
D10*
X108021427Y-83033609D02*
X108164284Y-83081228D01*
X108164284Y-83081228D02*
X108211903Y-83128847D01*
X108211903Y-83128847D02*
X108259522Y-83224085D01*
X108259522Y-83224085D02*
X108259522Y-83366942D01*
X108259522Y-83366942D02*
X108211903Y-83462180D01*
X108211903Y-83462180D02*
X108164284Y-83509800D01*
X108164284Y-83509800D02*
X108069046Y-83557419D01*
X108069046Y-83557419D02*
X107688094Y-83557419D01*
X107688094Y-83557419D02*
X107688094Y-82557419D01*
X107688094Y-82557419D02*
X108021427Y-82557419D01*
X108021427Y-82557419D02*
X108116665Y-82605038D01*
X108116665Y-82605038D02*
X108164284Y-82652657D01*
X108164284Y-82652657D02*
X108211903Y-82747895D01*
X108211903Y-82747895D02*
X108211903Y-82843133D01*
X108211903Y-82843133D02*
X108164284Y-82938371D01*
X108164284Y-82938371D02*
X108116665Y-82985990D01*
X108116665Y-82985990D02*
X108021427Y-83033609D01*
X108021427Y-83033609D02*
X107688094Y-83033609D01*
X109116665Y-83557419D02*
X109116665Y-83033609D01*
X109116665Y-83033609D02*
X109069046Y-82938371D01*
X109069046Y-82938371D02*
X108973808Y-82890752D01*
X108973808Y-82890752D02*
X108783332Y-82890752D01*
X108783332Y-82890752D02*
X108688094Y-82938371D01*
X109116665Y-83509800D02*
X109021427Y-83557419D01*
X109021427Y-83557419D02*
X108783332Y-83557419D01*
X108783332Y-83557419D02*
X108688094Y-83509800D01*
X108688094Y-83509800D02*
X108640475Y-83414561D01*
X108640475Y-83414561D02*
X108640475Y-83319323D01*
X108640475Y-83319323D02*
X108688094Y-83224085D01*
X108688094Y-83224085D02*
X108783332Y-83176466D01*
X108783332Y-83176466D02*
X109021427Y-83176466D01*
X109021427Y-83176466D02*
X109116665Y-83128847D01*
X109449999Y-82890752D02*
X109830951Y-82890752D01*
X109592856Y-82557419D02*
X109592856Y-83414561D01*
X109592856Y-83414561D02*
X109640475Y-83509800D01*
X109640475Y-83509800D02*
X109735713Y-83557419D01*
X109735713Y-83557419D02*
X109830951Y-83557419D01*
X110021428Y-82890752D02*
X110402380Y-82890752D01*
X110164285Y-82557419D02*
X110164285Y-83414561D01*
X110164285Y-83414561D02*
X110211904Y-83509800D01*
X110211904Y-83509800D02*
X110307142Y-83557419D01*
X110307142Y-83557419D02*
X110402380Y-83557419D01*
X111116666Y-83509800D02*
X111021428Y-83557419D01*
X111021428Y-83557419D02*
X110830952Y-83557419D01*
X110830952Y-83557419D02*
X110735714Y-83509800D01*
X110735714Y-83509800D02*
X110688095Y-83414561D01*
X110688095Y-83414561D02*
X110688095Y-83033609D01*
X110688095Y-83033609D02*
X110735714Y-82938371D01*
X110735714Y-82938371D02*
X110830952Y-82890752D01*
X110830952Y-82890752D02*
X111021428Y-82890752D01*
X111021428Y-82890752D02*
X111116666Y-82938371D01*
X111116666Y-82938371D02*
X111164285Y-83033609D01*
X111164285Y-83033609D02*
X111164285Y-83128847D01*
X111164285Y-83128847D02*
X110688095Y-83224085D01*
X111592857Y-83557419D02*
X111592857Y-82890752D01*
X111592857Y-83081228D02*
X111640476Y-82985990D01*
X111640476Y-82985990D02*
X111688095Y-82938371D01*
X111688095Y-82938371D02*
X111783333Y-82890752D01*
X111783333Y-82890752D02*
X111878571Y-82890752D01*
X112116667Y-82890752D02*
X112354762Y-83557419D01*
X112592857Y-82890752D02*
X112354762Y-83557419D01*
X112354762Y-83557419D02*
X112259524Y-83795514D01*
X112259524Y-83795514D02*
X112211905Y-83843133D01*
X112211905Y-83843133D02*
X112116667Y-83890752D01*
X113688096Y-83509800D02*
X113830953Y-83557419D01*
X113830953Y-83557419D02*
X114069048Y-83557419D01*
X114069048Y-83557419D02*
X114164286Y-83509800D01*
X114164286Y-83509800D02*
X114211905Y-83462180D01*
X114211905Y-83462180D02*
X114259524Y-83366942D01*
X114259524Y-83366942D02*
X114259524Y-83271704D01*
X114259524Y-83271704D02*
X114211905Y-83176466D01*
X114211905Y-83176466D02*
X114164286Y-83128847D01*
X114164286Y-83128847D02*
X114069048Y-83081228D01*
X114069048Y-83081228D02*
X113878572Y-83033609D01*
X113878572Y-83033609D02*
X113783334Y-82985990D01*
X113783334Y-82985990D02*
X113735715Y-82938371D01*
X113735715Y-82938371D02*
X113688096Y-82843133D01*
X113688096Y-82843133D02*
X113688096Y-82747895D01*
X113688096Y-82747895D02*
X113735715Y-82652657D01*
X113735715Y-82652657D02*
X113783334Y-82605038D01*
X113783334Y-82605038D02*
X113878572Y-82557419D01*
X113878572Y-82557419D02*
X114116667Y-82557419D01*
X114116667Y-82557419D02*
X114259524Y-82605038D01*
X114830953Y-83557419D02*
X114735715Y-83509800D01*
X114735715Y-83509800D02*
X114688096Y-83414561D01*
X114688096Y-83414561D02*
X114688096Y-82557419D01*
X115354763Y-83557419D02*
X115259525Y-83509800D01*
X115259525Y-83509800D02*
X115211906Y-83462180D01*
X115211906Y-83462180D02*
X115164287Y-83366942D01*
X115164287Y-83366942D02*
X115164287Y-83081228D01*
X115164287Y-83081228D02*
X115211906Y-82985990D01*
X115211906Y-82985990D02*
X115259525Y-82938371D01*
X115259525Y-82938371D02*
X115354763Y-82890752D01*
X115354763Y-82890752D02*
X115497620Y-82890752D01*
X115497620Y-82890752D02*
X115592858Y-82938371D01*
X115592858Y-82938371D02*
X115640477Y-82985990D01*
X115640477Y-82985990D02*
X115688096Y-83081228D01*
X115688096Y-83081228D02*
X115688096Y-83366942D01*
X115688096Y-83366942D02*
X115640477Y-83462180D01*
X115640477Y-83462180D02*
X115592858Y-83509800D01*
X115592858Y-83509800D02*
X115497620Y-83557419D01*
X115497620Y-83557419D02*
X115354763Y-83557419D01*
X115973811Y-82890752D02*
X116354763Y-82890752D01*
X116116668Y-82557419D02*
X116116668Y-83414561D01*
X116116668Y-83414561D02*
X116164287Y-83509800D01*
X116164287Y-83509800D02*
X116259525Y-83557419D01*
X116259525Y-83557419D02*
X116354763Y-83557419D01*
D11*
X158245180Y-63295238D02*
X157245180Y-63628571D01*
X157245180Y-63628571D02*
X158245180Y-63961904D01*
X157245180Y-64438095D02*
X157292800Y-64342857D01*
X157292800Y-64342857D02*
X157340419Y-64295238D01*
X157340419Y-64295238D02*
X157435657Y-64247619D01*
X157435657Y-64247619D02*
X157721371Y-64247619D01*
X157721371Y-64247619D02*
X157816609Y-64295238D01*
X157816609Y-64295238D02*
X157864228Y-64342857D01*
X157864228Y-64342857D02*
X157911847Y-64438095D01*
X157911847Y-64438095D02*
X157911847Y-64580952D01*
X157911847Y-64580952D02*
X157864228Y-64676190D01*
X157864228Y-64676190D02*
X157816609Y-64723809D01*
X157816609Y-64723809D02*
X157721371Y-64771428D01*
X157721371Y-64771428D02*
X157435657Y-64771428D01*
X157435657Y-64771428D02*
X157340419Y-64723809D01*
X157340419Y-64723809D02*
X157292800Y-64676190D01*
X157292800Y-64676190D02*
X157245180Y-64580952D01*
X157245180Y-64580952D02*
X157245180Y-64438095D01*
X157245180Y-65342857D02*
X157292800Y-65247619D01*
X157292800Y-65247619D02*
X157388038Y-65200000D01*
X157388038Y-65200000D02*
X158245180Y-65200000D01*
X157911847Y-66152381D02*
X157245180Y-66152381D01*
X157911847Y-65723810D02*
X157388038Y-65723810D01*
X157388038Y-65723810D02*
X157292800Y-65771429D01*
X157292800Y-65771429D02*
X157245180Y-65866667D01*
X157245180Y-65866667D02*
X157245180Y-66009524D01*
X157245180Y-66009524D02*
X157292800Y-66104762D01*
X157292800Y-66104762D02*
X157340419Y-66152381D01*
X157245180Y-66628572D02*
X157911847Y-66628572D01*
X157816609Y-66628572D02*
X157864228Y-66676191D01*
X157864228Y-66676191D02*
X157911847Y-66771429D01*
X157911847Y-66771429D02*
X157911847Y-66914286D01*
X157911847Y-66914286D02*
X157864228Y-67009524D01*
X157864228Y-67009524D02*
X157768990Y-67057143D01*
X157768990Y-67057143D02*
X157245180Y-67057143D01*
X157768990Y-67057143D02*
X157864228Y-67104762D01*
X157864228Y-67104762D02*
X157911847Y-67200000D01*
X157911847Y-67200000D02*
X157911847Y-67342857D01*
X157911847Y-67342857D02*
X157864228Y-67438096D01*
X157864228Y-67438096D02*
X157768990Y-67485715D01*
X157768990Y-67485715D02*
X157245180Y-67485715D01*
X157292800Y-68342857D02*
X157245180Y-68247619D01*
X157245180Y-68247619D02*
X157245180Y-68057143D01*
X157245180Y-68057143D02*
X157292800Y-67961905D01*
X157292800Y-67961905D02*
X157388038Y-67914286D01*
X157388038Y-67914286D02*
X157768990Y-67914286D01*
X157768990Y-67914286D02*
X157864228Y-67961905D01*
X157864228Y-67961905D02*
X157911847Y-68057143D01*
X157911847Y-68057143D02*
X157911847Y-68247619D01*
X157911847Y-68247619D02*
X157864228Y-68342857D01*
X157864228Y-68342857D02*
X157768990Y-68390476D01*
X157768990Y-68390476D02*
X157673752Y-68390476D01*
X157673752Y-68390476D02*
X157578514Y-67914286D01*
X157245180Y-69580953D02*
X158245180Y-69580953D01*
X158245180Y-69580953D02*
X158245180Y-69819048D01*
X158245180Y-69819048D02*
X158197561Y-69961905D01*
X158197561Y-69961905D02*
X158102323Y-70057143D01*
X158102323Y-70057143D02*
X158007085Y-70104762D01*
X158007085Y-70104762D02*
X157816609Y-70152381D01*
X157816609Y-70152381D02*
X157673752Y-70152381D01*
X157673752Y-70152381D02*
X157483276Y-70104762D01*
X157483276Y-70104762D02*
X157388038Y-70057143D01*
X157388038Y-70057143D02*
X157292800Y-69961905D01*
X157292800Y-69961905D02*
X157245180Y-69819048D01*
X157245180Y-69819048D02*
X157245180Y-69580953D01*
X157245180Y-70723810D02*
X157292800Y-70628572D01*
X157292800Y-70628572D02*
X157340419Y-70580953D01*
X157340419Y-70580953D02*
X157435657Y-70533334D01*
X157435657Y-70533334D02*
X157721371Y-70533334D01*
X157721371Y-70533334D02*
X157816609Y-70580953D01*
X157816609Y-70580953D02*
X157864228Y-70628572D01*
X157864228Y-70628572D02*
X157911847Y-70723810D01*
X157911847Y-70723810D02*
X157911847Y-70866667D01*
X157911847Y-70866667D02*
X157864228Y-70961905D01*
X157864228Y-70961905D02*
X157816609Y-71009524D01*
X157816609Y-71009524D02*
X157721371Y-71057143D01*
X157721371Y-71057143D02*
X157435657Y-71057143D01*
X157435657Y-71057143D02*
X157340419Y-71009524D01*
X157340419Y-71009524D02*
X157292800Y-70961905D01*
X157292800Y-70961905D02*
X157245180Y-70866667D01*
X157245180Y-70866667D02*
X157245180Y-70723810D01*
X157911847Y-71390477D02*
X157245180Y-71580953D01*
X157245180Y-71580953D02*
X157721371Y-71771429D01*
X157721371Y-71771429D02*
X157245180Y-71961905D01*
X157245180Y-71961905D02*
X157911847Y-72152381D01*
X157911847Y-72533334D02*
X157245180Y-72533334D01*
X157816609Y-72533334D02*
X157864228Y-72580953D01*
X157864228Y-72580953D02*
X157911847Y-72676191D01*
X157911847Y-72676191D02*
X157911847Y-72819048D01*
X157911847Y-72819048D02*
X157864228Y-72914286D01*
X157864228Y-72914286D02*
X157768990Y-72961905D01*
X157768990Y-72961905D02*
X157245180Y-72961905D01*
X158145180Y-51947619D02*
X157145180Y-52280952D01*
X157145180Y-52280952D02*
X158145180Y-52614285D01*
X157145180Y-53090476D02*
X157192800Y-52995238D01*
X157192800Y-52995238D02*
X157240419Y-52947619D01*
X157240419Y-52947619D02*
X157335657Y-52900000D01*
X157335657Y-52900000D02*
X157621371Y-52900000D01*
X157621371Y-52900000D02*
X157716609Y-52947619D01*
X157716609Y-52947619D02*
X157764228Y-52995238D01*
X157764228Y-52995238D02*
X157811847Y-53090476D01*
X157811847Y-53090476D02*
X157811847Y-53233333D01*
X157811847Y-53233333D02*
X157764228Y-53328571D01*
X157764228Y-53328571D02*
X157716609Y-53376190D01*
X157716609Y-53376190D02*
X157621371Y-53423809D01*
X157621371Y-53423809D02*
X157335657Y-53423809D01*
X157335657Y-53423809D02*
X157240419Y-53376190D01*
X157240419Y-53376190D02*
X157192800Y-53328571D01*
X157192800Y-53328571D02*
X157145180Y-53233333D01*
X157145180Y-53233333D02*
X157145180Y-53090476D01*
X157145180Y-53995238D02*
X157192800Y-53900000D01*
X157192800Y-53900000D02*
X157288038Y-53852381D01*
X157288038Y-53852381D02*
X158145180Y-53852381D01*
X157811847Y-54804762D02*
X157145180Y-54804762D01*
X157811847Y-54376191D02*
X157288038Y-54376191D01*
X157288038Y-54376191D02*
X157192800Y-54423810D01*
X157192800Y-54423810D02*
X157145180Y-54519048D01*
X157145180Y-54519048D02*
X157145180Y-54661905D01*
X157145180Y-54661905D02*
X157192800Y-54757143D01*
X157192800Y-54757143D02*
X157240419Y-54804762D01*
X157145180Y-55280953D02*
X157811847Y-55280953D01*
X157716609Y-55280953D02*
X157764228Y-55328572D01*
X157764228Y-55328572D02*
X157811847Y-55423810D01*
X157811847Y-55423810D02*
X157811847Y-55566667D01*
X157811847Y-55566667D02*
X157764228Y-55661905D01*
X157764228Y-55661905D02*
X157668990Y-55709524D01*
X157668990Y-55709524D02*
X157145180Y-55709524D01*
X157668990Y-55709524D02*
X157764228Y-55757143D01*
X157764228Y-55757143D02*
X157811847Y-55852381D01*
X157811847Y-55852381D02*
X157811847Y-55995238D01*
X157811847Y-55995238D02*
X157764228Y-56090477D01*
X157764228Y-56090477D02*
X157668990Y-56138096D01*
X157668990Y-56138096D02*
X157145180Y-56138096D01*
X157192800Y-56995238D02*
X157145180Y-56900000D01*
X157145180Y-56900000D02*
X157145180Y-56709524D01*
X157145180Y-56709524D02*
X157192800Y-56614286D01*
X157192800Y-56614286D02*
X157288038Y-56566667D01*
X157288038Y-56566667D02*
X157668990Y-56566667D01*
X157668990Y-56566667D02*
X157764228Y-56614286D01*
X157764228Y-56614286D02*
X157811847Y-56709524D01*
X157811847Y-56709524D02*
X157811847Y-56900000D01*
X157811847Y-56900000D02*
X157764228Y-56995238D01*
X157764228Y-56995238D02*
X157668990Y-57042857D01*
X157668990Y-57042857D02*
X157573752Y-57042857D01*
X157573752Y-57042857D02*
X157478514Y-56566667D01*
X158145180Y-58233334D02*
X157335657Y-58233334D01*
X157335657Y-58233334D02*
X157240419Y-58280953D01*
X157240419Y-58280953D02*
X157192800Y-58328572D01*
X157192800Y-58328572D02*
X157145180Y-58423810D01*
X157145180Y-58423810D02*
X157145180Y-58614286D01*
X157145180Y-58614286D02*
X157192800Y-58709524D01*
X157192800Y-58709524D02*
X157240419Y-58757143D01*
X157240419Y-58757143D02*
X157335657Y-58804762D01*
X157335657Y-58804762D02*
X158145180Y-58804762D01*
X157811847Y-59280953D02*
X156811847Y-59280953D01*
X157764228Y-59280953D02*
X157811847Y-59376191D01*
X157811847Y-59376191D02*
X157811847Y-59566667D01*
X157811847Y-59566667D02*
X157764228Y-59661905D01*
X157764228Y-59661905D02*
X157716609Y-59709524D01*
X157716609Y-59709524D02*
X157621371Y-59757143D01*
X157621371Y-59757143D02*
X157335657Y-59757143D01*
X157335657Y-59757143D02*
X157240419Y-59709524D01*
X157240419Y-59709524D02*
X157192800Y-59661905D01*
X157192800Y-59661905D02*
X157145180Y-59566667D01*
X157145180Y-59566667D02*
X157145180Y-59376191D01*
X157145180Y-59376191D02*
X157192800Y-59280953D01*
D10*
X144928095Y-48577419D02*
X144928095Y-49386942D01*
X144928095Y-49386942D02*
X144975714Y-49482180D01*
X144975714Y-49482180D02*
X145023333Y-49529800D01*
X145023333Y-49529800D02*
X145118571Y-49577419D01*
X145118571Y-49577419D02*
X145309047Y-49577419D01*
X145309047Y-49577419D02*
X145404285Y-49529800D01*
X145404285Y-49529800D02*
X145451904Y-49482180D01*
X145451904Y-49482180D02*
X145499523Y-49386942D01*
X145499523Y-49386942D02*
X145499523Y-48577419D01*
X146404285Y-48910752D02*
X146404285Y-49577419D01*
X146166190Y-48529800D02*
X145928095Y-49244085D01*
X145928095Y-49244085D02*
X146547142Y-49244085D01*
D11*
X141920952Y-60044819D02*
X142492380Y-60044819D01*
X142206666Y-61044819D02*
X142206666Y-60044819D01*
X142825714Y-61044819D02*
X142825714Y-60044819D01*
X142825714Y-60044819D02*
X143206666Y-60044819D01*
X143206666Y-60044819D02*
X143301904Y-60092438D01*
X143301904Y-60092438D02*
X143349523Y-60140057D01*
X143349523Y-60140057D02*
X143397142Y-60235295D01*
X143397142Y-60235295D02*
X143397142Y-60378152D01*
X143397142Y-60378152D02*
X143349523Y-60473390D01*
X143349523Y-60473390D02*
X143301904Y-60521009D01*
X143301904Y-60521009D02*
X143206666Y-60568628D01*
X143206666Y-60568628D02*
X142825714Y-60568628D01*
X143778095Y-60759104D02*
X144254285Y-60759104D01*
X143682857Y-61044819D02*
X144016190Y-60044819D01*
X144016190Y-60044819D02*
X144349523Y-61044819D01*
X145111428Y-60044819D02*
X144920952Y-60044819D01*
X144920952Y-60044819D02*
X144825714Y-60092438D01*
X144825714Y-60092438D02*
X144778095Y-60140057D01*
X144778095Y-60140057D02*
X144682857Y-60282914D01*
X144682857Y-60282914D02*
X144635238Y-60473390D01*
X144635238Y-60473390D02*
X144635238Y-60854342D01*
X144635238Y-60854342D02*
X144682857Y-60949580D01*
X144682857Y-60949580D02*
X144730476Y-60997200D01*
X144730476Y-60997200D02*
X144825714Y-61044819D01*
X144825714Y-61044819D02*
X145016190Y-61044819D01*
X145016190Y-61044819D02*
X145111428Y-60997200D01*
X145111428Y-60997200D02*
X145159047Y-60949580D01*
X145159047Y-60949580D02*
X145206666Y-60854342D01*
X145206666Y-60854342D02*
X145206666Y-60616247D01*
X145206666Y-60616247D02*
X145159047Y-60521009D01*
X145159047Y-60521009D02*
X145111428Y-60473390D01*
X145111428Y-60473390D02*
X145016190Y-60425771D01*
X145016190Y-60425771D02*
X144825714Y-60425771D01*
X144825714Y-60425771D02*
X144730476Y-60473390D01*
X144730476Y-60473390D02*
X144682857Y-60521009D01*
X144682857Y-60521009D02*
X144635238Y-60616247D01*
X146159047Y-61044819D02*
X145587619Y-61044819D01*
X145873333Y-61044819D02*
X145873333Y-60044819D01*
X145873333Y-60044819D02*
X145778095Y-60187676D01*
X145778095Y-60187676D02*
X145682857Y-60282914D01*
X145682857Y-60282914D02*
X145587619Y-60330533D01*
X146492381Y-60044819D02*
X147111428Y-60044819D01*
X147111428Y-60044819D02*
X146778095Y-60425771D01*
X146778095Y-60425771D02*
X146920952Y-60425771D01*
X146920952Y-60425771D02*
X147016190Y-60473390D01*
X147016190Y-60473390D02*
X147063809Y-60521009D01*
X147063809Y-60521009D02*
X147111428Y-60616247D01*
X147111428Y-60616247D02*
X147111428Y-60854342D01*
X147111428Y-60854342D02*
X147063809Y-60949580D01*
X147063809Y-60949580D02*
X147016190Y-60997200D01*
X147016190Y-60997200D02*
X146920952Y-61044819D01*
X146920952Y-61044819D02*
X146635238Y-61044819D01*
X146635238Y-61044819D02*
X146540000Y-60997200D01*
X146540000Y-60997200D02*
X146492381Y-60949580D01*
X147492381Y-60140057D02*
X147540000Y-60092438D01*
X147540000Y-60092438D02*
X147635238Y-60044819D01*
X147635238Y-60044819D02*
X147873333Y-60044819D01*
X147873333Y-60044819D02*
X147968571Y-60092438D01*
X147968571Y-60092438D02*
X148016190Y-60140057D01*
X148016190Y-60140057D02*
X148063809Y-60235295D01*
X148063809Y-60235295D02*
X148063809Y-60330533D01*
X148063809Y-60330533D02*
X148016190Y-60473390D01*
X148016190Y-60473390D02*
X147444762Y-61044819D01*
X147444762Y-61044819D02*
X148063809Y-61044819D01*
X119783333Y-74154819D02*
X119783333Y-73154819D01*
X119783333Y-73154819D02*
X120164285Y-73154819D01*
X120164285Y-73154819D02*
X120259523Y-73202438D01*
X120259523Y-73202438D02*
X120307142Y-73250057D01*
X120307142Y-73250057D02*
X120354761Y-73345295D01*
X120354761Y-73345295D02*
X120354761Y-73488152D01*
X120354761Y-73488152D02*
X120307142Y-73583390D01*
X120307142Y-73583390D02*
X120259523Y-73631009D01*
X120259523Y-73631009D02*
X120164285Y-73678628D01*
X120164285Y-73678628D02*
X119783333Y-73678628D01*
X121354761Y-74059580D02*
X121307142Y-74107200D01*
X121307142Y-74107200D02*
X121164285Y-74154819D01*
X121164285Y-74154819D02*
X121069047Y-74154819D01*
X121069047Y-74154819D02*
X120926190Y-74107200D01*
X120926190Y-74107200D02*
X120830952Y-74011961D01*
X120830952Y-74011961D02*
X120783333Y-73916723D01*
X120783333Y-73916723D02*
X120735714Y-73726247D01*
X120735714Y-73726247D02*
X120735714Y-73583390D01*
X120735714Y-73583390D02*
X120783333Y-73392914D01*
X120783333Y-73392914D02*
X120830952Y-73297676D01*
X120830952Y-73297676D02*
X120926190Y-73202438D01*
X120926190Y-73202438D02*
X121069047Y-73154819D01*
X121069047Y-73154819D02*
X121164285Y-73154819D01*
X121164285Y-73154819D02*
X121307142Y-73202438D01*
X121307142Y-73202438D02*
X121354761Y-73250057D01*
X121783333Y-74154819D02*
X121783333Y-73154819D01*
X121783333Y-73154819D02*
X122116666Y-73869104D01*
X122116666Y-73869104D02*
X122449999Y-73154819D01*
X122449999Y-73154819D02*
X122449999Y-74154819D01*
X123402380Y-73154819D02*
X122926190Y-73154819D01*
X122926190Y-73154819D02*
X122878571Y-73631009D01*
X122878571Y-73631009D02*
X122926190Y-73583390D01*
X122926190Y-73583390D02*
X123021428Y-73535771D01*
X123021428Y-73535771D02*
X123259523Y-73535771D01*
X123259523Y-73535771D02*
X123354761Y-73583390D01*
X123354761Y-73583390D02*
X123402380Y-73631009D01*
X123402380Y-73631009D02*
X123449999Y-73726247D01*
X123449999Y-73726247D02*
X123449999Y-73964342D01*
X123449999Y-73964342D02*
X123402380Y-74059580D01*
X123402380Y-74059580D02*
X123354761Y-74107200D01*
X123354761Y-74107200D02*
X123259523Y-74154819D01*
X123259523Y-74154819D02*
X123021428Y-74154819D01*
X123021428Y-74154819D02*
X122926190Y-74107200D01*
X122926190Y-74107200D02*
X122878571Y-74059580D01*
X124402380Y-74154819D02*
X123830952Y-74154819D01*
X124116666Y-74154819D02*
X124116666Y-73154819D01*
X124116666Y-73154819D02*
X124021428Y-73297676D01*
X124021428Y-73297676D02*
X123926190Y-73392914D01*
X123926190Y-73392914D02*
X123830952Y-73440533D01*
X125021428Y-73154819D02*
X125116666Y-73154819D01*
X125116666Y-73154819D02*
X125211904Y-73202438D01*
X125211904Y-73202438D02*
X125259523Y-73250057D01*
X125259523Y-73250057D02*
X125307142Y-73345295D01*
X125307142Y-73345295D02*
X125354761Y-73535771D01*
X125354761Y-73535771D02*
X125354761Y-73773866D01*
X125354761Y-73773866D02*
X125307142Y-73964342D01*
X125307142Y-73964342D02*
X125259523Y-74059580D01*
X125259523Y-74059580D02*
X125211904Y-74107200D01*
X125211904Y-74107200D02*
X125116666Y-74154819D01*
X125116666Y-74154819D02*
X125021428Y-74154819D01*
X125021428Y-74154819D02*
X124926190Y-74107200D01*
X124926190Y-74107200D02*
X124878571Y-74059580D01*
X124878571Y-74059580D02*
X124830952Y-73964342D01*
X124830952Y-73964342D02*
X124783333Y-73773866D01*
X124783333Y-73773866D02*
X124783333Y-73535771D01*
X124783333Y-73535771D02*
X124830952Y-73345295D01*
X124830952Y-73345295D02*
X124878571Y-73250057D01*
X124878571Y-73250057D02*
X124926190Y-73202438D01*
X124926190Y-73202438D02*
X125021428Y-73154819D01*
X125735714Y-73250057D02*
X125783333Y-73202438D01*
X125783333Y-73202438D02*
X125878571Y-73154819D01*
X125878571Y-73154819D02*
X126116666Y-73154819D01*
X126116666Y-73154819D02*
X126211904Y-73202438D01*
X126211904Y-73202438D02*
X126259523Y-73250057D01*
X126259523Y-73250057D02*
X126307142Y-73345295D01*
X126307142Y-73345295D02*
X126307142Y-73440533D01*
X126307142Y-73440533D02*
X126259523Y-73583390D01*
X126259523Y-73583390D02*
X125688095Y-74154819D01*
X125688095Y-74154819D02*
X126307142Y-74154819D01*
X126688095Y-73869104D02*
X127164285Y-73869104D01*
X126592857Y-74154819D02*
X126926190Y-73154819D01*
X126926190Y-73154819D02*
X127259523Y-74154819D01*
%TO.C,Battery Slot*%
D10*
X110762278Y-81237278D02*
X113037722Y-81237278D01*
X110762278Y-74912722D02*
X113037722Y-74912722D01*
X113037722Y-74912722D02*
G75*
G02*
X113037722Y-81237278I0J-3162278D01*
G01*
X110762278Y-81237278D02*
G75*
G02*
X110762278Y-74912722I0J3162278D01*
G01*
%TO.C,TP4*%
D12*
X117020000Y-92880000D02*
G75*
G02*
X113620000Y-92880000I-1700000J0D01*
G01*
X113620000Y-92880000D02*
G75*
G02*
X117020000Y-92880000I1700000J0D01*
G01*
%TO.C,SW3*%
D11*
X100100000Y-118491401D02*
X106100000Y-118491401D01*
X106100000Y-129491401D01*
X100100000Y-129491401D01*
X100100000Y-118491401D01*
%TO.C,SW2*%
X158800000Y-62800000D02*
X164800000Y-62800000D01*
X164800000Y-73800000D01*
X158800000Y-73800000D01*
X158800000Y-62800000D01*
%TO.C,U1*%
D12*
X117620000Y-136540000D02*
X117620000Y-135160000D01*
X119000000Y-136540000D02*
X117620000Y-136540000D01*
X120270000Y-133780000D02*
X128000000Y-133780000D01*
X120270000Y-136540000D02*
X120270000Y-133780000D01*
X120270000Y-136540000D02*
X128000000Y-136540000D01*
X128000000Y-136540000D02*
X128000000Y-133780000D01*
%TO.C,TP5*%
X127500000Y-96500000D02*
G75*
G02*
X124100000Y-96500000I-1700000J0D01*
G01*
X124100000Y-96500000D02*
G75*
G02*
X127500000Y-96500000I1700000J0D01*
G01*
%TO.C,TP3*%
X127525000Y-78800000D02*
G75*
G02*
X124125000Y-78800000I-1700000J0D01*
G01*
X124125000Y-78800000D02*
G75*
G02*
X127525000Y-78800000I1700000J0D01*
G01*
%TO.C,SW1*%
D11*
X158800000Y-50800000D02*
X164800000Y-50800000D01*
X164800000Y-61800000D01*
X158800000Y-61800000D01*
X158800000Y-50800000D01*
%TO.C,U4*%
X133287500Y-40337500D02*
X156287500Y-40337500D01*
X156287500Y-59337500D01*
X133287500Y-59337500D01*
X133287500Y-40337500D01*
%TO.C,U3*%
D12*
X114310000Y-41840000D02*
X114310000Y-70440000D01*
X115810000Y-71940000D02*
X129810000Y-71940000D01*
X118810000Y-43240000D02*
X132810000Y-43240000D01*
X118810000Y-47940000D02*
X118810000Y-43240000D01*
X129810000Y-40340000D02*
X115810000Y-40340000D01*
X131310000Y-70440000D02*
X131310000Y-41840000D01*
X132810000Y-43240000D02*
X132810000Y-47940000D01*
X132810000Y-47940000D02*
X118810000Y-47940000D01*
X114310000Y-41840000D02*
G75*
G02*
X115810000Y-40340000I1500000J0D01*
G01*
X115810000Y-71940000D02*
G75*
G02*
X114310000Y-70440000I1J1500001D01*
G01*
X129810000Y-40340000D02*
G75*
G02*
X131310000Y-41840000I0J-1500000D01*
G01*
X131310000Y-70440000D02*
G75*
G02*
X129810000Y-71940000I-1500001J1D01*
G01*
%TO.C,J3*%
X106245000Y-52220000D02*
X107625000Y-52220000D01*
X106245000Y-53600000D02*
X106245000Y-52220000D01*
X106245000Y-54870000D02*
X106245000Y-67680000D01*
X106245000Y-54870000D02*
X108895000Y-54870000D01*
X106245000Y-67680000D02*
X111545000Y-67680000D01*
X108895000Y-52220000D02*
X111545000Y-52220000D01*
X108895000Y-54870000D02*
X108895000Y-52220000D01*
X111545000Y-52220000D02*
X111545000Y-67680000D01*
%TO.C,J5*%
X107030000Y-94165000D02*
X107030000Y-91515000D01*
X109790000Y-91515000D02*
X107030000Y-91515000D01*
X109790000Y-94165000D02*
X107030000Y-94165000D01*
X109790000Y-94165000D02*
X109790000Y-91515000D01*
X109790000Y-95435000D02*
X109790000Y-96815000D01*
X109790000Y-96815000D02*
X108410000Y-96815000D01*
%TD*%
M02*
