<svg xmlns="http://www.w3.org/2000/svg" xmlns:xlink="http://www.w3.org/1999/xlink" viewBox="0 0 103.167 107.167" fill="#fff" fill-rule="evenodd" stroke="#000" stroke-linecap="round" stroke-linejoin="round"><use xlink:href="#A" x="2.083" y="2.083"/><symbol id="A" overflow="visible"><g stroke="none" fill-rule="nonzero"><path d="M2.1 68.823V34.046a4.17 4.17 0 0 1 4.167-4.167h24.396v43.11H6.267A4.17 4.17 0 0 1 2.1 68.827z" fill="#9b9b9a"/><path d="M64.991 98.038L34.783 73.913c.075-.2.117-.41.125-.625V29.017a2.2 2.2 0 0 0-.05-.244L64.983 4.315l.008 93.721z" fill="#d0cfce"/></g><g fill="none" stroke-width="4.167"><path d="M66.975 0L32.733 27.802H6.25A6.27 6.27 0 0 0 0 34.052v34.775a6.27 6.27 0 0 0 6.25 6.25h26.483l34.242 27.35V0z"/><path d="M32.733 29.079V73.35"/><path d="M90.837 27.577a39.4 39.4 0 0 1 0 47.275" stroke-miterlimit="10" stroke-linejoin="miter"/></g></symbol></svg>